<?xml version="1.0" encoding="UTF-8"?>
<svg id="Capa_1" data-name="Capa 1" xmlns="http://www.w3.org/2000/svg" viewBox="0 0 800 800">
  <defs>
    <style>
      .cls-1 {
        fill: #fff;
      }

      .cls-2 {
        fill: #e1251b;
      }
    </style>
  </defs>
  <path class="cls-2" d="m398.42,500.49c-1.17.84-2.75,1.42-4.87,1.42-2.13,0-3.7-.57-4.89-1.41h-.12c-3.43-2.62-3.38-7.64-3.38-8.22v-7.48c0-.47,0-4.62,2.72-7.18h0c1.26-1.19,3.1-2.05,5.8-2.05,2.62,0,4.41.84,5.6,2.04h0c2.69,2.68,2.52,7.13,2.52,7.93v6.9c0,.95-.13,5.62-3.38,8.03m-9.61-33.34c7.9,0,12.6,5.68,12.6,5.68v-8.99s1.3-9.56-7.88-9.56c-9.2,0-8,9.76-8,9.76h-15.77s0-2.79,0-2.79c0,0-.39-7.66-7.79-7.66-7.39,0-7.68,7.48-7.68,7.48v16.57s0,6.99,0,6.99c0,0,0,7.99,7.8,7.99,7.79,0,7.98-6.89,7.98-6.89,0-3.13.59-5.82,1.61-8.09,3.31-7.42,11.1-10.48,17.13-10.48Zm-17.52-153.05c0-1.97-.95-8.13-9.2-8.13-8.68,0-9.59,6.77-9.59,8.13v24.26h18.79v-24.26Zm145.08-57.59c0,7.94,6.45,14.38,14.39,14.38.6,0,1.2-.04,1.79-.11l.04,12.47c-.59-.16-1.22-.2-1.83-.2-7.93,0-14.39,6.47-14.39,14.4s6.45,14.38,14.39,14.38c.6,0,1.2-.05,1.79-.11l.04,12.46c-.59-.15-1.22-.17-1.83-.17-7.93,0-14.39,6.44-14.39,14.38,0,7.96,6.45,14.37,14.39,14.37.6,0,1.2-.04,1.79-.12l.04,12.48c-.59-.15-1.22-.17-1.83-.17-7.93,0-14.39,6.44-14.39,14.39,0,7.93,6.45,14.39,14.39,14.39.6,0,1.2-.06,1.79-.12l.04,12.46c-.59-.15-1.22-.19-1.83-.19-7.93,0-14.39,6.44-14.39,14.4,0,2.63.71,5.09,1.95,7.21h0c2.5,4.28,7.14,7.15,12.43,7.15.61,0,1.2-.04,1.79-.12l.04,12.47c-.59-.15-1.21-.16-1.83-.16-7.93,0-14.38,6.44-14.38,14.37,0,7.95,6.45,14.38,14.38,14.38.61,0,1.2-.05,1.79-.09l.04,12.45c-.59-.15-1.21-.17-1.83-.17-7.37,0-13.46,5.56-14.29,12.76h0c-.05.53-.09,1.07-.09,1.61,0,7.92,6.45,14.38,14.39,14.38.6,0,1.19-.04,1.79-.11l.03,12.45c-.59-.14-1.21-.18-1.82-.18-7.93,0-14.39,6.46-14.39,14.4,0,7.94,6.45,14.37,14.39,14.37.6,0,1.19-.04,1.79-.11l.03,16.22h-14.18c.14-.6.17-1.2.17-1.81,0-7.94-6.43-14.4-14.38-14.4-7.95,0-14.37,6.45-14.37,14.4,0,.58.04,1.2.1,1.79l-13.06.02c.12-.6.17-1.2.17-1.81,0-7.94-6.44-14.4-14.38-14.4-7.95,0-14.39,6.45-14.39,14.4,0,.58.04,1.2.1,1.79l-13.04.02c.13-.6.16-1.2.16-1.81,0-7.94-6.43-14.4-14.39-14.4-7.94,0-14.38,6.45-14.38,14.4,0,.58.05,1.2.11,1.79l-13.05.02c.14-.6.17-1.2.17-1.81,0-7.94-6.45-14.4-14.37-14.4-7.95,0-14.4,6.45-14.4,14.4,0,.58.05,1.2.11,1.79l-13.06.02c.13-.6.16-1.2.16-1.81,0-7.94-6.45-14.4-14.38-14.4-7.94,0-14.37,6.45-14.37,14.4,0,.58.04,1.2.11,1.79l-13.07.02c.14-.6.17-1.2.17-1.81,0-7.94-6.44-14.4-14.38-14.4-7.94,0-14.39,6.45-14.39,14.4,0,.58.04,1.2.11,1.79l-14.8.02v-15.67c.58.13,1.21.18,1.82.18,7.94,0,14.4-6.45,14.4-14.38,0-7.95-6.46-14.4-14.4-14.4-.6,0-1.2.05-1.8.11l-.02-12.45c.58.14,1.21.18,1.82.18,7.94,0,14.4-6.45,14.4-14.39,0-.74-.06-1.46-.17-2.2-1.06-6.91-7.04-12.18-14.23-12.18-.61,0-1.2.03-1.8.11l-.02-12.47c.58.15,1.21.17,1.82.17,7.94,0,14.4-6.44,14.4-14.37,0-7.94-6.45-14.37-14.4-14.37-.61,0-1.2.04-1.8.1l-.02-12.46c.58.15,1.21.18,1.82.18,5.54,0,10.35-3.13,12.76-7.77h0c1.04-1.98,1.63-4.23,1.63-6.62,0-7.93-6.45-14.38-14.4-14.38-.61,0-1.21.03-1.8.12l-.02-12.46c.58.13,1.2.16,1.82.16,7.94,0,14.4-6.44,14.4-14.38,0-7.94-6.45-14.39-14.4-14.39-.61,0-1.21.04-1.8.11l-.02-12.47c.58.15,1.2.2,1.82.2,7.94,0,14.4-6.45,14.4-14.4,0-7.92-6.45-14.38-14.4-14.38-.61,0-1.21.03-1.8.1l-.02-12.45c.58.15,1.2.17,1.82.17,7.94,0,14.4-6.44,14.4-14.37,0-7.96-6.45-14.4-14.4-14.4-.61,0-1.21.05-1.8.12l-.02-12.45c.58.13,1.2.17,1.82.17,7.94,0,14.4-6.44,14.4-14.38,0-7.95-6.45-14.39-14.4-14.39-.61,0-1.21.05-1.8.11l-.02-16.21h14.18c-.15.58-.19,1.19-.19,1.83,0,7.93,6.45,14.37,14.39,14.37,7.95,0,14.38-6.44,14.38-14.37,0-.62-.02-1.21-.1-1.81l13.07-.02c-.16.58-.19,1.19-.19,1.83,0,7.93,6.45,14.37,14.39,14.37,7.94,0,14.39-6.44,14.39-14.37,0-.62-.04-1.21-.11-1.81l13.07-.02c-.14.58-.18,1.19-.18,1.83,0,7.93,6.43,14.37,14.38,14.37,7.93,0,14.38-6.44,14.38-14.37,0-.62-.04-1.21-.11-1.81l13.08-.02c-.15.58-.2,1.19-.2,1.83,0,7.93,6.45,14.37,14.4,14.37,7.94,0,14.37-6.44,14.37-14.37,0-.62-.05-1.21-.11-1.81l13.06-.02c-.14.58-.18,1.19-.18,1.83,0,7.93,6.45,14.37,14.4,14.37,7.94,0,14.37-6.44,14.37-14.37,0-.62-.03-1.21-.1-1.81l13.06-.02c-.13.58-.17,1.19-.17,1.83,0,7.93,6.42,14.37,14.38,14.37,7.95,0,14.39-6.44,14.39-14.37,0-.62-.05-1.37-.11-1.96h14.8s0,15.81,0,15.81c-.59-.14-1.22-.17-1.83-.17-7.93,0-14.39,6.45-14.39,14.38Zm-24.44,8.15h-183.85s0,270.71,0,270.71h183.84s0-270.71,0-270.71Zm-44.16,69.94c0-1.58-.74-7.51-7.52-7.51-6.15,0-7.03,5.67-7.03,7.22v4.36h14.55v-4.07Zm34.33-61.15v154.04s0,0,0,0v73.03s0,0,0,0v26.11s-164.2,0-164.2,0v-26.11h0v-73.02s0-.01,0-.01v-154.03s164.21,0,164.21,0Zm-91.87,103.05h14.03v-24.66s7.85,0,7.85,0c1.9,0,2.63-.94,2.63-2.32v-8.51s.62-2.95-3.2-2.95c-6.04,0-7.03,5.04-7.03,5.04h-.48s-.13-.99-.13-2.83c0-1.83-2.47-1.96-2.47-1.96h-8.86c-1.6,0-2.33,1.59-2.33,2.18v36Zm25.69,84.33c0-2.14-.11-21.44-22.3-21.44,0,0-8.12-.63-15.67,5.68,0,0-6.66-5.97-16.33-5.97-9.67,0-22.54,8.2-22.54,23.96v14.58s0,4.53,0,4.53c0,1.33-.13,11.38,6.02,18.36h.05c3.39,3.87,8.67,6.75,16.92,6.75,5.2,0,10.07-1.12,13.64-4.45,0,0,5.78,5.24,13.45,5.24,9.13,0,12.65-5.35,12.65-5.35v2.06s0,2.06,2.42,2.06h9.19s2.51.17,2.51-2.57v-3.73s0,0,0,0v-22.88s0-16.81,0-16.81Zm0-33.34h0,0s0-30.68,0-30.68c0,0-.19-15.41-14.77-15.41-3.73,0-12.39,1.39-14.8,11.21h-1.19s0-78.51,0-78.51c0-2.05-1.11-22.09-23.33-22.09-22.21,0-23.65,20.38-23.65,22.09v62.81h14.32v-24.53s18.79,0,18.79,0v75.11s0,0,0,0v11.95h13.88v-11.96s0,0,0,0h0s0-19.79,0-19.79c0,0-.12-9.8,8.13-9.8,8.6,0,8.5,9.8,8.5,9.8v19.78s-.01,0-.01,0h0v10.44s.37,1.32,1.52,1.32h11.46s1.15-.12,1.15-.96v-10.81Zm25.56,12.49c-21.94,0-21.31,18.68-21.31,20.19,0,1.53.15,9.27,8.28,13.22,2.8,1.36,5.88,2.78,8.72,4.25,5.43,2.83,9.98,5.92,9.98,9.39,0,5.78-5.79,6.03-5.79,6.03,0,0-8.37.88-7.41-8.86,0,0,.38-3.09-2.08-3.09h-9.24s-2.57-.02-2.57,2.94c0,7.7,1.83,12.93,4.66,16.42v.04c4.3,5.28,10.88,6.6,16.77,6.6,2.71,0,10.14-.89,15-6.64h.03c2.59-3.12,4.45-7.6,4.45-14.07,0-3.43-.9-6.34-2.24-8.77h0c-3.7-6.74-10.66-9.75-10.66-9.75,0,0-14.11-5.4-14.11-9.2s2.84-6.03,7.05-6.03c4.19,0,6.88,3.56,6.88,6.77,0,3.21.49,4.07,2.35,4.07h10.72s2.46-23.52-19.47-23.52Zm19.75-60.49s.25-2.57-2.9-2.57h-7.61s-2.68,0-2.68,2.57v38.72s-.25,7.32-7.19,7.32c-7.45,0-7.45-7.66-7.45-7.66v-38.38s.13-2.57-2.54-2.57h-8.51s-2.26-.14-2.26,2.71v40.44c0,.84.27,3.96,1.82,7.39l-.02.03h.03c2.31,5.1,7.47,10.92,18.81,10.92,11.54,0,16.59-5.75,18.8-10.9v-.02c1.64-3.8,1.72-7.29,1.72-7.84v-40.16Zm.58-46.36c0-1.65-2.36-20.21-21.81-20.21-19.5,0-20.83,19.33-20.83,20.83v20.83c0,1.82,1.23,22.04,21.69,22.04,20.46,0,20.46-19.09,20.46-19.09,0,0-.25-2.23-2.59-2.23-2.34,0-8.13-.12-8.13-.12,0,0-2.57.12-3.56,3.21-.99,3.08-4.69,4.3-6.78,4.3-2.09,0-7.15-1.59-7.15-7.27v-3.33s26.25,0,26.25,0c.91,0,2.46-.37,2.46-2.46v-16.51Z"/>
  <path class="cls-1" d="m352.51,376.88v-24.53s18.79,0,18.79,0v75.11s0,0,0,0v11.95h13.88v-11.96s0,0,0,0h0v-19.79s-.12-9.81,8.13-9.81c8.6,0,8.5,9.81,8.5,9.81v19.78s-.01,0-.01,0h0v10.44s.37,1.32,1.52,1.32h11.46s1.15-.12,1.15-.96v-10.81s0,0,0,0h0s0-30.68,0-30.68c0,0-.19-15.41-14.77-15.41-3.73,0-12.39,1.39-14.8,11.21h-1.19s0-78.51,0-78.51c0-2.05-1.11-22.09-23.33-22.09-22.21,0-23.65,20.38-23.65,22.09v62.81h14.32Zm0-62.81c0-1.36.9-8.13,9.59-8.13,8.25,0,9.2,6.16,9.2,8.13v24.25s-18.79,0-18.79,0v-24.25Z"/>
  <path class="cls-1" d="m440.87,376.59c20.46,0,20.46-19.09,20.46-19.09,0,0-.25-2.23-2.59-2.23-2.34,0-8.13-.12-8.13-.12,0,0-2.57.12-3.56,3.21-.99,3.08-4.69,4.3-6.78,4.3-2.09,0-7.15-1.59-7.15-7.27v-3.33s26.25,0,26.25,0c.91,0,2.46-.37,2.46-2.46v-16.51c0-1.65-2.36-20.21-21.81-20.21-19.5,0-20.83,19.33-20.83,20.83v20.83c0,1.82,1.23,22.04,21.69,22.04Zm-7.64-42.3c0-1.55.88-7.22,7.03-7.22,6.78,0,7.52,5.93,7.52,7.51v4.07s-14.55,0-14.55,0v-4.36Z"/>
  <path class="cls-1" d="m308.08,535.36h183.84s0-270.71,0-270.71h-183.85s0,270.71,0,270.71Zm9.82-107.88h0s0-154.04,0-154.04h164.21s0,154.04,0,154.04h0v73.03s0,0,0,0v26.11s-164.2,0-164.2,0v-26.11h0v-73.02Z"/>
  <path class="cls-1" d="m390.24,376.47h14.03v-24.66s7.85,0,7.85,0c1.9,0,2.63-.94,2.63-2.32v-8.51s.62-2.95-3.2-2.95c-6.04,0-7.03,5.04-7.03,5.04h-.48s-.13-.99-.13-2.83c0-1.83-2.47-1.96-2.47-1.96h-8.86c-1.6,0-2.33,1.59-2.33,2.18v36Z"/>
  <path class="cls-1" d="m441.48,439.95c-21.94,0-21.31,18.68-21.31,20.19,0,1.53.15,9.27,8.28,13.22,2.8,1.36,5.88,2.78,8.72,4.25,5.43,2.83,9.98,5.92,9.98,9.39,0,5.78-5.79,6.03-5.79,6.03,0,0-8.37.88-7.41-8.86,0,0,.38-3.09-2.08-3.09h-9.24s-2.57-.02-2.57,2.94c0,7.7,1.83,12.93,4.66,16.42v.04c4.3,5.28,10.88,6.6,16.77,6.6,2.71,0,10.14-.89,15-6.64h.03c2.59-3.12,4.45-7.6,4.45-14.07,0-3.43-.9-6.34-2.24-8.77h0c-3.7-6.74-10.66-9.75-10.66-9.75,0,0-14.11-5.4-14.11-9.2s2.84-6.03,7.05-6.03c4.19,0,6.88,3.56,6.88,6.77,0,3.21.49,4.07,2.35,4.07h10.72s2.46-23.52-19.47-23.52Z"/>
  <path class="cls-1" d="m461.23,379.46s.25-2.57-2.9-2.57h-7.61s-2.68,0-2.68,2.57v38.72s-.25,7.32-7.19,7.32c-7.45,0-7.45-7.66-7.45-7.66v-38.38s.13-2.57-2.54-2.57h-8.51s-2.26-.14-2.26,2.71v40.44c0,.84.27,3.96,1.82,7.39l-.02.03h.03c2.31,5.1,7.47,10.92,18.81,10.92,11.54,0,16.59-5.75,18.8-10.9v-.02c1.64-3.8,1.72-7.29,1.72-7.84v-40.16Z"/>
  <path class="cls-1" d="m345.1,500.49h.05c3.39,3.87,8.67,6.75,16.92,6.75,5.2,0,10.07-1.12,13.64-4.45,0,0,5.78,5.24,13.45,5.24,9.13,0,12.65-5.35,12.65-5.35v2.06s0,2.06,2.42,2.06h9.19s2.51.17,2.51-2.57v-3.73s0,0,0,0v-22.88s0-16.81,0-16.81c0-2.14-.11-21.44-22.3-21.44,0,0-8.12-.63-15.67,5.68,0,0-6.66-5.97-16.33-5.97-9.67,0-22.54,8.2-22.54,23.96v14.58s0,4.53,0,4.53c0,1.33-.13,11.38,6.02,18.36Zm56.69-14.96v6.9c0,.95-.13,5.62-3.38,8.03v.03c-1.17.84-2.75,1.42-4.87,1.42-2.13,0-3.7-.57-4.89-1.41h-.12c-3.43-2.62-3.38-7.64-3.38-8.22v-7.48c0-.47,0-4.62,2.72-7.18h0c1.26-1.19,3.1-2.05,5.8-2.05,2.62,0,4.41.84,5.6,2.04h0c2.69,2.68,2.52,7.13,2.52,7.93Zm-47.51-7.92v-16.57s.29-7.48,7.68-7.48c7.39,0,7.79,7.66,7.79,7.66v2.79h15.77s-1.2-9.76,8-9.76c9.18,0,7.88,9.56,7.88,9.56v8.99s-4.7-5.68-12.6-5.68c-6.03,0-13.82,3.06-17.13,10.48-1.02,2.27-1.61,4.96-1.61,8.09,0,0-.19,6.89-7.98,6.89-7.8,0-7.8-7.99-7.8-7.99v-6.99Z"/>
</svg>