<?xml version="1.0" encoding="UTF-8"?>
<svg id="Capa_1" data-name="Capa 1" xmlns="http://www.w3.org/2000/svg" viewBox="0 0 800 800">
  <defs>
    <style>
      .cls-1 {
        fill: #e66e3f;
      }
    </style>
  </defs>
  <g>
    <path class="cls-1" d="m418.24,192.53l5.22.62c4.27.5,7.22,3.66,6.7,8.12-.52,4.42-4.09,6.86-8.4,6.36l-5.21-.61,1.7-14.49Zm3.71,11.8c2.69.32,4.06-1.07,4.35-3.51.28-2.42-.73-4.1-3.42-4.42l-1.25-.15-.93,7.93,1.25.14Z"/>
    <rect class="cls-1" x="480.12" y="217.2" width="14.56" height="3.79" transform="translate(78.06 562.61) rotate(-64.21)"/>
    <path class="cls-1" d="m536.94,252.9c3.06-3.07,7.5-3.17,10.68,0,2.05,2.05,2.67,4.28,2.16,6.65l-3.55-.71c.27-1.18.2-2.41-.97-3.57-1.62-1.62-3.85-1.36-5.56.36-1.7,1.7-1.97,3.95-.29,5.62,1.28,1.28,2.69,1.46,3.95,1.02l.93,3.41c-2.33.79-4.97.2-7.22-2.04-3.36-3.35-3.13-7.73-.11-10.75"/>
    <rect class="cls-1" x="573.42" y="310.41" width="14.57" height="3.8" transform="translate(-78.1 285.21) rotate(-25.92)"/>
    <polygon class="cls-1" points="605.8 369.05 607.06 379.32 603.82 379.72 603.03 373.21 599.9 373.59 600.56 379.02 597.49 379.4 596.82 373.97 595.05 374.19 595.88 380.98 592.64 381.37 591.35 370.82 605.8 369.05"/>
    <path class="cls-1" d="m594.32,443.24c1.16-.85,2.58-1.56,2.58-1.56,0,0-1.89-.14-3.05-.41l-4.63-1.05.77-3.4,14.4,3.26-.07.3-7.15,5.28c-1.26.91-2.61,1.56-2.61,1.56,0,0,1.9.2,3.07.46l4.6,1.04-.77,3.4-14.42-3.27.06-.3,7.22-5.32Z"/>
    <path class="cls-1" d="m577.55,508.36l-2.88,4.39c-2.36,3.6-6.5,4.82-10.26,2.36-3.71-2.44-4.3-6.73-1.93-10.35l2.88-4.39,12.19,7.99Zm-12.2-1.96c-1.49,2.27-.86,4.11,1.19,5.46,2.03,1.33,4,1.18,5.48-1.08l.69-1.05-6.68-4.38-.69,1.05Z"/>
    <path class="cls-1" d="m524.82,557.14c2.64,3.6,1.58,8.2-1.87,10.71-3.45,2.53-8.15,2.17-10.79-1.44-2.61-3.56-1.57-8.19,1.87-10.72,3.45-2.52,8.18-2.11,10.79,1.45m-9.53,6.98c1.46,1.98,3.78,2.42,5.68,1.04,1.89-1.38,2.18-3.73.72-5.72-1.48-2.03-3.78-2.42-5.67-1.04-1.89,1.38-2.21,3.7-.73,5.72"/>
    <path class="cls-1" d="m449.97,592.09c-.17.74-.15,1.58.08,2.5l-3.12.86c-.51-1.95-.33-3.73.32-5.27l-2.87-1.99,4.1-1.13.68.48c.92-.86,2.08-1.5,3.34-1.85,3.8-1.05,6.43.2,7.14,2.78.53,1.91-.25,3.2-2.23,4.85.95.83,1.42,1.66,1.65,2.52.53,1.94-.65,3.86-3.24,4.57-2.37.65-4.31-.2-4.88-2.28-.36-1.32.19-2.69,1.79-4.11l-2.76-1.94Zm5.49-.18c.8-.77.86-1.4.65-2.18-.3-1.08-1.47-1.54-2.84-1.16-.57.16-1.08.42-1.54.74l3.73,2.6Zm-1.53,5.29c.14.51.62.79,1.19.63.59-.16.88-.68.74-1.19-.16-.59-.62-.87-1.08-1.18l-.03-.02c-.81.74-.97,1.22-.82,1.76"/>
    <polygon class="cls-1" points="388.17 607.47 384.39 607.14 384.98 600.38 379.62 599.91 379.03 606.67 375.25 606.33 376.52 591.83 380.3 592.16 379.92 596.55 385.28 597.02 385.67 592.63 389.45 592.96 388.17 607.47"/>
    <path class="cls-1" d="m311.01,587.91l-.28-.13.11-16.25,3.56,1.69-.05,1.27,4.87,2.31.96-.85,3.32,1.58-12.49,10.38Zm3.1-10.7l-.07,1.57c-.06,1.63-.33,3.24-.33,3.24,0,0,1.02-1.24,2.27-2.32l1.2-1.04-3.07-1.46Z"/>
    <path class="cls-1" d="m262.17,545.69c-3.08,3.04-7.52,3.11-10.68-.09-2.04-2.07-2.64-4.3-2.11-6.66l3.55.73c-.28,1.19-.21,2.41.95,3.58,1.61,1.62,3.84,1.38,5.57-.32,1.71-1.69,2-3.93.33-5.62-1.27-1.29-2.67-1.48-3.94-1.05l-.91-3.42c2.34-.78,4.98-.16,7.22,2.1,3.33,3.37,3.07,7.75.03,10.76"/>
    <rect class="cls-1" x="211.54" y="484.05" width="14.58" height="3.79" transform="translate(-187.7 141.32) rotate(-25.47)"/>
    <polygon class="cls-1" points="194.12 429.07 192.94 418.78 196.18 418.4 196.93 424.92 200.07 424.56 199.44 419.12 202.52 418.76 203.15 424.2 204.92 423.99 204.14 417.2 207.38 416.82 208.6 427.39 194.12 429.07"/>
    <path class="cls-1" d="m206.19,354.82c-1.18.84-2.6,1.54-2.6,1.54,0,0,1.88.16,3.05.44l4.62,1.09-.8,3.4-14.37-3.39.07-.3,7.19-5.22c1.28-.9,2.63-1.53,2.63-1.53,0,0-1.89-.22-3.06-.49l-4.59-1.08.8-3.4,14.39,3.4-.07.3-7.26,5.26Z"/>
    <path class="cls-1" d="m223.42,289.89l2.9-4.37c2.38-3.58,6.53-4.78,10.27-2.29,3.7,2.46,4.26,6.75,1.87,10.36l-2.91,4.37-12.14-8.07Zm12.19,2.04c1.5-2.26.89-4.11-1.17-5.47-2.02-1.34-3.98-1.21-5.49,1.04l-.69,1.05,6.65,4.42.69-1.04Z"/>
    <path class="cls-1" d="m276.52,241.5c-2.61-3.62-1.51-8.2,1.95-10.69,3.46-2.5,8.15-2.1,10.77,1.53,2.58,3.58,1.5,8.2-1.95,10.69-3.46,2.49-8.18,2.05-10.76-1.52m9.57-6.9c-1.44-1.99-3.76-2.44-5.66-1.08-1.9,1.37-2.2,3.72-.77,5.71,1.47,2.03,3.76,2.45,5.66,1.08,1.9-1.37,2.23-3.68.77-5.71"/>
    <path class="cls-1" d="m351.59,207.11c.18-.75.16-1.57-.06-2.5l3.14-.83c.49,1.95.3,3.74-.35,5.27l2.85,2.01-4.1,1.1-.68-.48c-.93.85-2.09,1.48-3.36,1.82-3.8,1.02-6.42-.24-7.12-2.84-.51-1.91.27-3.19,2.26-4.83-.95-.85-1.4-1.68-1.64-2.54-.52-1.94.67-3.85,3.26-4.54,2.38-.64,4.31.23,4.87,2.31.35,1.32-.21,2.68-1.82,4.1l2.75,1.95Zm-5.49.14c-.81.77-.87,1.39-.66,2.17.29,1.08,1.45,1.55,2.83,1.18.57-.15,1.08-.4,1.54-.72l-3.71-2.62Zm1.57-5.28c-.14-.51-.61-.79-1.18-.64-.59.16-.89.67-.75,1.18.16.59.61.88,1.07,1.19l.04.03c.82-.74.97-1.22.83-1.76"/>
  </g>
  <path class="cls-1" d="m457.32,436.55h0l-15.11-8.3-1.54,2.47c-8.02,12.91-21.39,19.9-38.62,20.21-16,.2-29.2-6.69-37.17-19.41-4.97-7.92-7.7-17.93-7.9-28.95-.25-14.11,3.53-26.31,10.93-35.3,7.7-9.34,18.79-14.4,32.07-14.63,7.58-.09,14.14,1.29,20.06,4.23,5.55,2.75,10.36,6.77,14.69,12.3l1.79,2.27,15.04-10.43,13.85-9.6-1.97-2.56c-5.87-7.6-12.78-13.73-20.59-18.27l.06-.08-3.25-1.66-2.3-1.18-.03.04c-10.75-4.97-23.38-7.4-37.59-7.22h-.66c-23.65.43-43.91,8.79-58.61,24.18-14.3,14.99-21.95,35.8-21.54,58.59.39,21.93,7.53,40.91,20.68,55.07l-.03.04,1.87,1.88,2.51,2.51.05-.07c6.92,6.29,15.05,11.21,24.18,14.66,10.47,3.95,22.04,5.87,34.42,5.72h.62c15.04-.28,28.57-3.52,40.19-9.65,11.69-6.15,20.85-14.9,27.23-25.97l1.56-2.72-14.9-8.18Zm-57.44-90.07c-15.15.27-27.84,6.11-36.72,16.88-8.35,10.13-12.62,23.73-12.34,39.32.2,11.33,2.87,21.74,7.74,30.28l-2.82,3.77-5.43,7.26c-.06-.08-.13-.15-.19-.23-.12-.16-.25-.31-.37-.47-.16-.2-.32-.4-.48-.61-.12-.15-.24-.31-.36-.47-.16-.2-.31-.41-.47-.62-.11-.16-.23-.32-.34-.47-.15-.21-.31-.43-.46-.65-.11-.16-.22-.31-.32-.47-.15-.23-.31-.46-.45-.69-.1-.15-.21-.3-.3-.45-.16-.25-.32-.5-.47-.76-.09-.13-.17-.27-.26-.4-.19-.32-.38-.64-.58-.97-.04-.07-.08-.14-.13-.21-.23-.4-.45-.8-.68-1.21-.05-.09-.1-.19-.15-.28-.17-.31-.33-.62-.5-.94-.08-.14-.15-.29-.23-.43-.13-.27-.27-.54-.4-.81-.08-.16-.16-.33-.23-.5-.12-.25-.24-.51-.36-.77-.08-.17-.16-.34-.24-.52-.12-.25-.23-.51-.34-.76-.08-.18-.16-.36-.23-.54-.11-.25-.21-.51-.32-.77-.08-.18-.15-.36-.22-.55-.1-.26-.2-.52-.3-.78-.07-.18-.14-.37-.21-.56-.1-.26-.19-.53-.28-.79-.07-.18-.13-.37-.19-.55-.09-.28-.18-.55-.28-.83-.05-.18-.11-.36-.17-.54-.09-.29-.18-.59-.28-.89-.05-.16-.1-.32-.15-.49-.1-.34-.2-.69-.3-1.04-.03-.12-.07-.24-.1-.35-.12-.47-.25-.94-.37-1.42-.02-.06-.03-.13-.05-.2-.1-.41-.2-.82-.29-1.23-.03-.16-.07-.33-.11-.49-.07-.31-.14-.63-.2-.95-.04-.19-.08-.38-.11-.57-.06-.3-.12-.59-.17-.89-.04-.21-.07-.41-.11-.62-.05-.28-.1-.57-.15-.86-.03-.21-.07-.43-.1-.64-.04-.29-.09-.57-.12-.85-.03-.22-.06-.44-.09-.66-.04-.29-.07-.57-.11-.86-.03-.22-.05-.44-.08-.67-.04-.29-.06-.58-.09-.87-.02-.22-.04-.44-.07-.66-.03-.3-.05-.59-.08-.89-.02-.22-.04-.44-.05-.66-.02-.31-.04-.62-.06-.94-.02-.21-.03-.41-.04-.62-.02-.35-.04-.7-.05-1.05,0-.17-.02-.35-.02-.53-.02-.52-.03-1.05-.05-1.58h0c-.21-11.92,2.27-23.08,7.14-32.63,2.55-5,5.76-9.56,9.57-13.56,10.68-11.18,25.39-17.58,42.71-18.62,1.16-.08,2.32-.12,3.5-.14h.6c.69-.02,1.35-.02,2.02-.01.22,0,.43,0,.64,0,.45,0,.89.01,1.33.03.26,0,.51.02.76.03.39.01.79.03,1.18.05.27.01.53.03.79.04.38.02.75.04,1.12.07.26.02.53.04.79.06.37.03.73.06,1.09.09.26.03.52.05.78.08.36.04.73.08,1.09.13.25.03.49.06.74.09.38.05.75.1,1.13.16.22.03.44.06.65.1.45.07.89.14,1.33.22.14.03.28.05.42.07.58.1,1.14.21,1.7.33.16.03.31.07.47.1.4.09.81.18,1.21.27.21.05.42.1.62.15.34.08.69.17,1.02.26.22.06.45.12.67.18.32.09.64.18.96.27.23.07.45.14.67.21.31.1.62.19.92.29.22.07.44.15.67.22.3.1.61.21.91.32.21.08.43.15.64.23.08.03.17.07.26.1l-6.09,8.14c-6.15-2.6-13.04-3.88-20.55-3.79m56.66,3.6l-4.26,2.95-3.86-3.86c-.27-.27-.54-.54-.81-.8-.09-.08-.18-.17-.26-.25-.19-.18-.38-.36-.57-.54-.1-.09-.2-.18-.3-.27-.19-.18-.38-.35-.57-.52-.09-.08-.18-.16-.27-.24-.26-.23-.51-.45-.77-.67-.02-.02-.05-.05-.08-.07-.28-.24-.57-.47-.86-.71-.09-.07-.18-.14-.27-.22-.2-.17-.41-.33-.61-.48-.11-.09-.21-.16-.31-.24-.21-.16-.4-.31-.61-.45-.1-.07-.2-.15-.3-.22-.25-.19-.51-.37-.77-.56l-.13-.09c-.3-.21-.6-.42-.91-.62-.09-.06-.18-.12-.27-.18-.22-.14-.44-.29-.66-.43-.11-.07-.22-.14-.33-.21-.21-.13-.42-.27-.63-.39-.1-.07-.22-.13-.32-.2-.25-.15-.5-.3-.75-.45-.07-.04-.13-.08-.19-.11-.29-.17-.58-.33-.87-.5l3.16-4.22c6.48,3.67,12.32,8.55,17.4,14.55m-15.98,117.91c-10.77,5.67-23.37,8.67-37.42,8.93h-.61c-11.6.15-22.43-1.64-32.18-5.32-8.6-3.25-16.21-7.9-22.65-13.86l3.14-4.2c.16.15.31.29.47.44.2.18.4.37.61.55.21.19.42.37.64.56.2.18.41.36.62.54.22.18.43.35.65.53.21.18.42.36.64.52.22.18.44.35.66.52.21.17.43.34.65.51.23.17.45.33.68.5.22.16.44.32.67.49.23.17.46.32.69.48.22.16.45.32.67.47.23.16.47.31.7.46.23.15.46.31.69.46.24.15.48.3.71.44.24.15.48.3.72.44.24.14.48.28.72.42.24.15.48.29.73.42.25.14.49.27.74.41.24.13.49.27.73.41.25.13.5.26.75.39.25.13.5.26.75.38.25.13.51.25.76.37.25.13.5.25.76.37.25.12.51.24.77.35.26.11.52.23.78.35.26.11.52.22.79.34.26.11.52.22.79.33.26.11.54.21.8.32.27.11.53.21.8.32.27.1.54.19.81.3.27.1.54.2.81.29.27.1.55.19.82.28.27.09.54.19.82.28.28.09.56.17.84.26.27.09.55.17.83.26.28.09.57.17.85.25.28.08.56.16.84.24.28.08.57.15.86.23.28.07.56.15.85.22.29.07.59.14.88.21.28.07.57.14.85.2.3.06.6.13.9.19.29.06.57.12.86.19.31.06.61.11.91.17.29.06.58.11.87.17.31.05.62.11.93.15.29.05.58.1.87.14.31.05.63.09.95.14.29.04.58.09.87.13.33.04.65.08.97.12.29.03.58.07.87.1.33.04.66.07,1,.1.29.03.58.06.87.09.34.03.68.06,1.03.08.28.02.57.05.85.07.36.02.72.04,1.08.06.27.02.54.03.82.05.37.02.75.03,1.13.04.26.01.52.02.79.03.42.02.83.02,1.24.03.24,0,.47,0,.71.01.65,0,1.3,0,1.95,0h.58c13.24-.25,25.04-3.05,35.07-8.34,4.63-2.44,8.84-5.4,12.51-8.8.19-.18.39-.37.58-.56,1.36-1.32,2.66-2.8,3.87-4.39l3.91-5.14,4.69,2.58c-5.68,8.8-13.45,15.83-23.13,20.93"/>
</svg>