<?xml version="1.0" encoding="UTF-8"?>
<svg id="Capa_1" data-name="Capa 1" xmlns="http://www.w3.org/2000/svg" viewBox="0 0 800 800">
  <defs>
    <style>
      .cls-1 {
        fill: #f7733b;
      }
    </style>
  </defs>
  <path class="cls-1" d="m373.16,396.85c0,26,0,52,0,78.01,0,2.35.26,4.71.19,7.05-.1,3.17-.86,6.25-1.51,9.35-2.33,11.16-7.25,21.14-13.38,30.64-8.57,13.25-20.28,22.9-34.07,30.24-10.43,5.55-21.55,8.85-33.16,10.98-8.22,1.51-16.45,1.66-24.72,1.78-5.04.07-10.08.11-15.11,0-11.32-.26-22.54-1.35-33.39-4.83-16.27-5.22-30.81-13.43-42.9-25.62-11.21-11.3-19.21-24.5-22.89-40.13-1.52-6.44-2.21-12.96-2.2-19.57.03-28.11.07-56.23.07-84.34,0-21.29-.04-42.58-.1-63.87-.02-8.83,1.4-17.47,3.18-26.07.51-2.48,1.64-4.76,2.69-7.05,12.64-27.47,34.01-44.74,62.63-53.48,8.11-2.47,16.4-3.91,24.87-4.48,9.17-.62,18.33-.49,27.51-.04,6.25.31,12.47.9,18.72,1.15,6.05.24,11.88,1.47,17.58,3.58,13.78,5.11,26.17,12.6,37.72,21.57,4.81,3.73,8.37,8.62,11.86,13.52,6.56,9.2,11.7,19.11,14.53,30.12,1.55,6.02,1.97,12.16,1.92,18.36-.09,12.51-.07,25.03-.08,37.54,0,11.86,0,23.73,0,35.59h.03Zm-137.9,19.93v-.02c-17.31,0-34.62,0-51.93,0-4.68,0-5.24.61-5.32,5.37-.07,4.4.26,8.77,1.03,13.1,2.45,13.74,8.56,25.72,18.1,35.81,7.7,8.15,16.93,14.13,27.69,17.62,4.15,1.35,6.44,3.2,5.89,8.42-.24,2.31.26,2.72,2.51,2.87.4.03.81.02,1.22.02,17.88,0,35.76-.02,53.64-.02.89,0,1.79.02,2.68-.02,3.01-.15,3.81-1.18,3.3-4.22-.59-3.48.47-5.47,3.82-6.59,2.48-.83,4.8-1.98,7.17-3.04,9.49-4.22,17.24-10.58,23.66-18.7,5.69-7.2,10.52-14.83,13.19-23.7,1.77-5.86,2.92-11.82,3.64-17.88.23-1.93.65-3.85.51-5.82-.13-1.78-.66-2.43-2.36-2.96-1.03-.32-2.09-.26-3.14-.26-12.67,0-25.35-.06-38.02.3-7.48.21-14.94-.32-22.42-.3-14.95.04-29.91.01-44.86.01Zm67.96-110.82c-1.41-.2-2.51.55-3.22,1.87-.88,1.65-1.7,3.33-2.48,5.02-3.55,7.67-6.69,15.52-10.45,23.09-3.26,6.55-6.26,13.22-9.11,19.95-6.21,14.66-12.17,29.44-19.26,43.71-.22.44-.44.88-.57,1.35-.22.81-.31,1.68.6,2.13.88.44,1.76.31,2.45-.43.74-.78,1.11-1.79,1.53-2.76,1-2.31,1.91-4.68,3.29-6.79,2.45-3.76,4.42-7.77,6.27-11.84,1.38-3.04,2.71-6.09,4.36-8.99,2.09-3.67,3.99-7.45,5.84-11.25,5.12-10.52,10.18-21.07,15.33-31.58,2.9-5.91,5.82-11.81,8.96-17.59,1.73-3.19.04-5.68-3.54-5.91Zm-37.9,102.33c0,.68.22,1.59,1.14,1.98.91.39,1.2-.57,1.7-1.04,2.23-2.13,4.45-4.27,6.7-6.39,7.82-7.34,16.24-14.01,23.94-21.49,3.26-3.17,6.67-6.19,9.94-9.36,8.34-8.09,17.26-15.57,25.47-23.8,2.02-2.02,4.17-3.88,6.69-5.24,1.57-.85,2.56-2.2,3.53-3.62.66-.96.56-1.85-.12-2.68-.67-.81-1.44-1.55-2.15-2.32-1.69-1.85-2.67-1.89-4.38-.01-7.41,8.1-15.25,15.77-22.99,23.55-5.27,5.3-10.56,10.58-15.82,15.89-6.86,6.93-13.86,13.72-20.81,20.56-2.89,2.85-5.76,5.74-8.86,8.36-1.05.89-1.99,1.91-2.92,2.93-.61.67-1.01,1.47-1.05,2.68Z"/>
  <path class="cls-1" d="m398.74,321.24c0-9.1-.02-18.2,0-27.3.01-4.51,1.29-8.66,4-12.3,3.74-5.01,8.92-7.41,15.02-7.96,2.18-.2,4.38-.17,6.57.15,7.43,1.09,14.46,9.07,15.84,15.6.25,1.18.19,2.42.22,3.64.1,4.54-.2,9.09.23,13.64.23,2.45-.89,3.58-3.42,3.66-2.03.06-4.06.05-6.09-.04-2.92-.13-4.06-1.18-4.6-4.02-.6-3.14-.37-6.32-.36-9.48,0-2.05-.06-4.04-1.14-5.89-.99-1.71-2.33-2.63-4.34-2.59-1.31.03-2.6.11-3.83.58-2.18.82-3.44,2.38-3.73,4.69-.1.8-.08,1.62-.08,2.43,0,16.82.02,33.64-.03,50.45,0,2.52.38,4.74,2.75,6.05,2.67,1.48,5.45,1.48,8.19.2,1.37-.64,2.08-1.86,2.1-3.34.06-4.63.12-9.26.02-13.89-.05-2.2-1.19-3.09-3.48-3.22-4.05-.23-4.74-.91-4.68-4.98.03-1.94.23-3.89.47-5.82.21-1.7,1.2-2.82,2.93-3.16.87-.17,1.77-.3,2.65-.3,4.39-.04,8.77-.05,13.16-.03,2.43.01,3.18.66,3.5,3.09.32,2.41.23,4.86.62,7.28.67,4.13,1.82,8.06,3.76,11.78,3.46,6.66,9.38,9.95,16.27,11.74,3.21.83,6.54,1.24,9.85,1.61,3.22.37,6.27-.62,9.27-1.69,1.22-.43,2.41-1,3.65-1.38,1.83-.56,3.19-.09,3.83,1.59.97,2.56,2.65,4.64,4.05,6.91,2.12,3.41,1.92,4.01-1.68,5.58-4.63,2.01-9.34,3.76-14.36,4.54-2.43.38-4.88.48-7.29.14-7.01-1-13.91-2.5-20.37-5.58-2.42-1.15-4.77-2.32-6.56-4.48-1.6-1.94-3.16-1.72-4.37.54-2.5,4.65-6.47,7.14-11.46,8.27-3.01.68-6.03,1.33-9.15,1-9.65-1-17.76-9.72-17.86-19.44-.1-9.42-.02-18.85-.02-28.27-.01,0-.03,0-.04,0Z"/>
  <path class="cls-1" d="m604.52,319.78c0-14.06,0-28.12,0-42.18,0-2.47.28-2.78,2.71-3.03,5.26-.54,5.34-.46,7.36,4.44.8,1.95,1.72,3.86,2.69,5.74,5.03,9.84,9.77,19.82,14.33,29.89.03.07.05.16.1.22.51.79.81,2.09,1.96,1.85,1.11-.24.71-1.49.71-2.32.03-11.3.03-22.59.04-33.89,0-1.22-.02-2.44.26-3.64.32-1.35,1.1-2.21,2.51-2.23,2.84-.04,5.69-.1,8.53.05,2.18.11,3.16,1.21,3.34,3.45.2,2.43.38,4.86.39,7.3.03,14.95.23,29.91-.06,44.86-.18,9.18-.14,18.36-.24,27.54-.02,1.79.01,3.57.23,5.35.33,2.75-.77,4.1-3.5,4.58-3.28.58-5.48-.53-7.13-3.76-2.25-4.42-4.4-8.89-6.62-13.32-3.46-6.9-6.87-13.83-9.91-20.92-.36-.84-.91-1.53-1.41-2.26-.27-.4-.57-.85-1.15-.71-.69.17-.76.78-.79,1.35-.03.57-.02,1.14-.02,1.71,0,10.73,0,21.46.02,32.18,0,5.13-.76,5.89-5.98,5.76-1.54-.04-3.08-.2-4.6-.43-2.17-.33-3.12-1.26-3.5-3.46-.19-1.11-.21-2.26-.21-3.4-.01-13.57,0-27.15,0-40.72h-.02Z"/>
  <path class="cls-1" d="m427.92,408.31c0-5.12-.02-10.24,0-15.36.02-3.23,1.03-4.15,4.28-4.17,2.19,0,4.39-.14,6.58-.13,3.1.02,4.44,1.35,4.53,4.45.12,3.9-.57,7.77-.44,11.68.16,4.79.48,9.58.3,14.37-.53,14.21-.2,28.43-.26,42.65-.02,4.71.22,9.42.25,14.13.03,4.96-.73,5.69-5.6,5.63-2.03-.02-4.06.06-6.06-.45-1.87-.47-2.99-1.58-3.3-3.46-.16-.96-.24-1.94-.24-2.91-.02-9.1-.02-18.2-.01-27.3,0-4.2-.48-4.72-4.76-4.83-1.86-.05-3.73-.13-5.57.37-1.53.41-2.37,1.33-2.56,2.87-.07.56-.12,1.13-.13,1.7-.11,7.88-.49,15.75-.31,23.63.04,1.87.22,3.73.26,5.6.02.8-.07,1.63-.25,2.41-.36,1.56-1.09,2.28-2.71,2.29-2.6.03-5.18.38-7.77.48-4.18.16-6.06-1.69-5.9-5.87,1.09-27.37.16-54.75.44-82.13.05-4.53.72-5.19,5.24-5.18,2.03,0,4.06-.16,6.09-.15,3.53.02,5,1.53,5.07,5.07,0,.32.03.65,0,.97-.78,7.38.07,14.77-.19,22.15-.06,1.87.03,3.73-.22,5.6-.13.97-.08,1.94.15,2.91.48,2.04,1.24,2.77,3.35,2.85,2.11.08,4.23.08,6.34,0,2.3-.1,2.98-.76,3.31-3.07.13-.88.13-1.78.13-2.67.01-4.71,0-9.43,0-14.14h-.03Z"/>
  <path class="cls-1" d="m501.2,320.15c0-13.24,0-26.49,0-39.73,0-.33,0-.65,0-.98.01-4.3,1.23-5.45,5.59-5.21,1.46.08,2.92.23,4.36.43,2.09.28,2.92,1.12,3.34,3.27.31,1.6.41,3.22.4,4.85-.02,8.45-.02,16.9-.03,25.35,0,.73-.02,1.46.02,2.19.13,2.01.74,2.82,2.73,3.11,2.41.36,4.86.33,7.29.1,1.43-.14,2.32-1.03,2.74-2.42.34-1.11.35-2.24.35-3.38,0-9.43,0-18.85,0-28.28,0-4.24.86-5.14,5.11-5.21,2.35-.04,4.71-.14,7.05.3,2.16.41,2.7.91,3.17,3.09.24,1.12.3,2.25.3,3.39,0,26.81,0,53.63,0,80.44,0,1.14-.09,2.27-.3,3.39-.28,1.47-1.12,2.35-2.59,2.49-3.23.31-6.46.76-9.7.07-1.76-.37-2.57-1.06-2.86-2.83-.17-1.03-.17-2.1-.17-3.16,0-9.59,0-19.18.01-28.76,0-3.91-.75-4.71-4.69-4.68-1.86.01-3.73.2-5.58.4-1.66.17-2.46.93-2.71,2.62-.17,1.2-.17,2.43-.17,3.65,0,9.26.02,18.53.02,27.79,0,4.47-.92,5.34-5.49,5.36-1.64,0-3.24-.24-4.84-.49-1.6-.25-2.59-1.19-2.96-2.83-.32-1.44-.37-2.89-.37-4.36,0-13.33,0-26.65,0-39.98h-.02Z"/>
  <path class="cls-1" d="m602.19,414.14c0,3.08.04,5.19-.01,7.3-.07,2.75-.77,3.4-3.44,3.64-2.35.21-4.68.33-7.04-.02-2.73-.41-3.79-1.39-4.3-4.14-.37-2.01-.35-4.04-.36-6.07,0-2.44-.01-4.87-.09-7.31-.1-3.01-1.32-4.27-4.32-4.45-1.54-.09-3.09-.02-4.63,0-1.83.03-2.99.94-3.69,2.64-2.49,6.13-1.16,11.61,2.77,16.65,1.31,1.68,3.03,2.92,4.87,4,3.78,2.23,7.53,4.5,10.99,7.21,2.44,1.91,4.69,4.01,6.33,6.69,1.51,2.47,2.29,5.15,2.57,8.04.59,6.17.56,12.31,0,18.48-.46,5.04-2.49,9.2-6.83,11.75-8.59,5.06-17.53,6.06-26.66,1.25-4-2.11-6.58-5.43-8.25-9.57-1.54-3.83-2.11-7.83-2.25-11.91-.12-3.49-.11-6.98-.11-10.48,0-2.2.79-3.29,2.93-3.44,2.82-.2,5.65-.64,8.5-.21,2.69.4,3.98,1.47,4.21,4.2.26,3.14.76,6.3.33,9.47-.32,2.3-.04,4.55.73,6.72.91,2.57,2.18,3.45,4.9,3.53,1.05.03,2.12.08,3.17,0,2.47-.19,4.16-1.6,4.46-4.04.73-5.93-.25-11.65-2.62-17.11-.86-1.98-2.54-3.36-4.44-4.38-1.65-.88-3.35-1.65-5-2.54-11.13-5.99-17.05-15.23-17.09-27.95-.01-4.24.84-8.4,2.22-12.42,1.4-4.06,4.14-6.92,8.07-8.64,1.11-.49,2.3-.84,3.38-1.4,6.76-3.49,13.4-2.3,19.95.53,3.44,1.49,6.09,3.99,8.14,7.12,1.41,2.16,2.19,4.49,2.26,7.09.1,3.57.5,7.13.35,9.75Z"/>
  <path class="cls-1" d="m505.51,427.96c0-11.51,0-21.91,0-32.32,0-.65,0-1.3,0-1.95.04-4.12.87-4.91,5.08-4.89,1.46,0,2.92-.1,4.38-.14,4.86-.14,6.06,1.06,5.89,6-.06,1.86-.4,3.72-.41,5.58-.03,19.99-.02,39.98,0,59.97,0,.89.12,1.79.3,2.66.88,4.34,5.38,6.87,9.5,5.22,2.87-1.15,3.99-3.68,4.47-6.51.19-1.11.11-2.27.11-3.41-.01-20.48-.04-40.96-.06-61.43,0-1.06-.01-2.11,0-3.17.06-3.49,1.16-4.61,4.69-4.78,2.2-.11,4.38.22,6.56.47,2.18.25,3.26,1.44,3.57,3.69.22,1.61.36,3.23.37,4.85.03,9.43.27,18.86-.05,28.28-.42,12.35-.04,24.7-.27,37.04-.16,8.42-4.08,14.18-11.91,17.23-5.25,2.05-10.65,2.98-16.23,1.66-5.06-1.2-9.28-3.86-12.59-7.87-1.97-2.39-2.86-5.16-2.99-8.31-.54-13-.22-26-.42-37.88Z"/>
  <path class="cls-1" d="m610.97,435.5c0-13.16,0-26.31,0-39.47,0-6.16,1.13-7.27,7.22-7.21,4.63.04,9.24.46,13.88.31,3.97-.13,7.95-.22,11.92-.31.73-.02,1.47-.04,2.19.02,2.47.21,3.34.98,3.64,3.41.3,2.43.23,4.86-.18,7.28-.34,2.01-1.48,3.2-3.48,3.55-3.3.58-6.62.66-9.94.23-1.78-.23-3.56-.34-5.34-.23-2.61.16-4.01,1.54-4.22,4.12-.08,1.05-.1,2.12.04,3.16.59,4.29.32,8.59.38,12.89,0,.57-.01,1.14.02,1.71.14,2.65.78,3.28,3.4,3.32,2.84.04,5.68-.17,8.51.33,2.99.52,4.12,1.64,4.23,4.65.08,2.11.07,4.23-.08,6.33-.17,2.44-1.12,3.31-3.59,3.35-3.08.06-6.17,0-9.26,0-2.86,0-3.24.37-3.24,3.23-.01,5.77,0,11.53,0,17.3,0,.24,0,.49,0,.73.11,2.79.76,3.47,3.49,3.51,3,.04,6.01.02,9.01.01,2.11,0,4.22-.03,6.33-.02,2.95.02,3.73.72,3.96,3.69.15,2.02.18,4.06-.2,6.07-.48,2.5-1.21,3.3-3.74,3.81-.95.19-1.93.27-2.9.28-9.1.03-18.19.03-27.29.04-.32,0-.65,0-.97-.02-2.37-.19-3.49-1.26-3.77-3.66-.08-.72-.06-1.46-.06-2.19,0-13.4,0-26.8,0-40.2h.02Z"/>
  <path class="cls-1" d="m496.42,424.43c0,4.87-.05,9.75.01,14.62.09,7.12-3.04,12.51-8.82,16.41-8.84,5.96-21.54,4.31-28.83-1.51-2.14-1.71-3.57-3.88-4.53-6.5-1.8-4.96-2.54-10-2.37-15.29.23-7.06.07-14.14.08-21.2,0-2.2.26-4.38.74-6.52,1.98-8.81,7.38-14.23,16.22-16.18,8.58-1.89,15.85.93,22.33,6.34,2.95,2.46,4.2,5.89,4.72,9.62.43,3.07.48,6.15.47,9.24-.01,3.66,0,7.31,0,10.97h-.03Zm-14.77.77c.26-5.85-.29-11.67-.54-17.5-.14-3.14-1.62-4.48-4.8-4.57-1.22-.04-2.44-.04-3.65.02-3.41.18-4.46,1.24-4.48,4.67-.04,6.57-.04,13.14-.04,19.71,0,3.98.03,7.95.04,11.93,0,1.16.06,2.35,1.07,3.1,1.94,1.45,4.13,2.32,6.58,2.01,3.02-.38,4.81-2.43,5.35-5.77.72-4.52.32-9.07.49-13.6Z"/>
  <path class="cls-1" d="m593.98,315.51c0,8.37.02,16.74,0,25.11,0,2.92-.86,3.8-3.78,3.83-2.27.03-4.54.15-6.8-.29-2.03-.4-3.11-1.58-3.49-3.55-.25-1.29-.2-2.59-.21-3.89-.02-2.6.04-5.2-.06-7.8-.15-3.9-1.18-4.87-5.03-4.93-1.3-.02-2.6-.03-3.9.03-3.04.13-4.59,1.41-4.36,4.34.31,3.98-.49,7.93.08,11.91.42,2.92-.73,4.11-3.61,4.18-1.87.05-3.74.09-5.6-.04-2.61-.18-3.57-1.1-4.09-3.68-.16-.79-.22-1.61-.23-2.42-.04-15.03.02-30.07-.01-45.1-.02-8.43,4.1-14.66,11.97-17.88,5.81-2.37,11.9-2.92,17.71.08,4.12,2.12,7.23,5.48,9.6,9.46,1.27,2.14,1.8,4.46,1.78,6.98-.07,7.88-.03,15.77-.03,23.65.02,0,.04,0,.05,0Zm-14.4-16.88c0-2.02.1-4.05-.03-6.07-.1-1.55-.56-3.02-2.17-3.82-4.51-2.25-10.32.88-10.75,5.92-.32,3.79,0,7.6-.3,11.41-.17,2.1.96,3.11,3.09,3.19,2.1.09,4.21.09,6.31.01,2.4-.09,3.09-.8,3.56-3.13.5-2.49.29-5,.28-7.51Z"/>
  <path class="cls-1" d="m449.56,309.48c0-6.19.12-11.14-.03-16.1-.21-6.88,2.89-11.99,8.15-16.03,4.24-3.26,9.07-4.21,14.27-3.57,1.77.22,3.56.48,5.27.96,5.1,1.44,9.02,4.37,11.23,9.32,2.27,5.09,3.83,10.29,3.62,16-.22,6.25,0,12.51-.08,18.77-.05,3.9-.47,7.79-1.5,11.57-1.16,4.27-3.32,7.88-6.95,10.58-3.06,2.28-6.43,3.4-10.21,3.43-2.44.02-4.87,0-7.31,0-1.07,0-2.1-.16-3.13-.4-6.14-1.43-12.65-9.71-13.03-15.07-.49-6.91.02-13.81-.3-19.47Zm26.76-.54h-.01c0-1.22,0-2.43,0-3.65,0-4.14.06-8.27-.04-12.41-.09-3.54-2.24-5.34-5.76-4.89-3.41.43-7.39,2.83-7.3,7.92.17,8.84.05,17.68.06,26.52,0,.73,0,1.47.1,2.18.73,5.17,5.41,7.1,9.85,5.71,1.32-.41,2.17-1.35,2.57-2.71.39-1.34.54-2.7.54-4.08,0-4.87,0-9.73,0-14.6Z"/>
  <path class="cls-1" d="m595.31,359.62c0,1.46.14,2.92-.13,4.37-.42,2.27-1.19,3.02-3.44,3.48-1.85.38-3.72.48-5.58.29-5.02-.51-10.06-.29-15.09-.29-4.62,0-9.25-.18-13.87.25-3.19.3-4.29-.82-4.34-4.02-.04-2.18-.48-4.35-.04-6.55.45-2.28,1.15-3.13,3.39-3.51,1.68-.29,3.37-.48,5.08-.48,7.96.03,15.91.02,23.87.01,1.95,0,3.88-.12,5.82-.4,2.62-.38,4.17,1.01,4.31,3.67.05,1.05,0,2.11,0,3.17Z"/>
  <path class="cls-1" d="m475.46,467.68c5.6,0,11.2,0,16.8,0,.49,0,.98-.02,1.46.02,1.85.18,2.66.89,2.74,2.76.1,2.27.1,4.55-.04,6.81-.14,2.44-1.1,3.39-3.52,3.97-1.12.27-2.25.31-3.39.31-10.88.01-21.75.02-32.63.02-.65,0-1.31.01-1.94-.09-1.81-.28-2.81-1.2-2.96-3.03-.21-2.51-.19-5.03.38-7.51.36-1.59,1.34-2.51,2.92-2.9,1.2-.3,2.41-.35,3.62-.35,5.52,0,11.04,0,16.56,0h0Z"/>
  <path class="cls-1" d="m520.38,525.2c0,3.7.04,6.79-.02,9.87-.03,1.71-.81,2.48-2.31,2.53-1.31.05-2.19-.56-2.47-1.85-.17-.78-.19-1.61-.19-2.42-.01-7.15,0-14.3,0-21.45,0-.57.01-1.14.06-1.7.09-1,.62-1.67,1.63-1.86.97-.18,1.76.15,2.33.96.18.26.33.56.43.87.41,1.23.74,2.5,1.42,3.62,1.09,1.8,2.21,3.59,3.43,5.58.7-.83.76-1.68.78-2.52.03-1.71,0-3.41.01-5.12.02-2.62.78-3.51,2.93-3.5,2.29.02,3.15.96,3.16,3.6.02,4.71-.01,9.42-.01,14.14,0,2.92,0,5.85.01,8.77,0,1.02-.08,1.97-1.2,2.43-1.12.46-2.06.13-2.9-.66-1.57-1.47-2.67-3.24-3.45-5.24-.79-2.02-1.6-4.06-3.65-6.06Z"/>
  <path class="cls-1" d="m488.51,523.47c-.14-3.8.08-7.29,1.08-10.66,1.59-5.4,7.56-7.33,11.81-3.88,1.39,1.13,2.3,2.56,2.34,4.37.1,4.54.71,9.05.52,13.61-.09,2.2-.59,4.33-.96,6.48-.72,4.13-4.35,4.76-7.37,4.58-.72-.04-1.43-.27-2.15-.4-3.19-.59-4.58-1.98-4.79-5.17-.21-3.07-.63-6.14-.48-8.93Zm9.69-.54c0-1.94,0-3.89,0-5.83,0-.73.03-1.46-.04-2.19-.13-1.46-.75-2.12-1.85-2.06-1.09.06-1.64.74-1.77,2.19-.01.16-.01.32-.01.49,0,5.02-.01,10.04-.02,15.06,0,.32-.01.65.04.97.18.98,1.12,1.8,2.03,1.75,1-.06,1.35-.81,1.5-1.64.1-.55.1-1.13.1-1.69,0-2.35,0-4.7,0-7.05Z"/>
  <path class="cls-1" d="m635.22,522.17c0-3.41,0-6.82,0-10.23,0-2.95.81-3.74,3.77-3.74,1.7,0,3.42-.07,5.11.06,3.98.3,5.48,1.94,5.5,5.91.02,6.09.02,12.18,0,18.27-.01,3.48-.79,4.39-4.29,4.98-1.6.27-3.22.38-4.84.51-3.38.28-4.96-.92-5.11-4.3-.17-3.81-.04-7.63-.04-11.44-.03,0-.07,0-.1,0Zm9.39-1.45c0-1.23.06-3.58-.02-5.93-.04-1.21-.81-1.87-1.83-1.83-1.15.05-1.5.85-1.5,1.82-.02,5.34-.04,10.68,0,16.02.01,1.35.58,1.8,1.76,1.77,1.18-.02,1.71-.53,1.86-1.78.04-.32.04-.65,0-.97-.39-2.66-.17-5.33-.27-9.11Z"/>
  <path class="cls-1" d="m426.69,520.89c0,3.01-.02,6.01,0,9.02.02,2.31.58,3.21,1.82,3.12,1.15-.08,1.85-1.24,1.82-3.28-.02-1.87-.22-3.73-.24-5.6-.04-3.9-.01-7.8,0-11.7,0-.89-.03-1.79.26-2.66.4-1.19,1.34-1.57,2.48-1.58,1.18-.01,2.05.49,2.33,1.71.12.55.2,1.13.2,1.69-.11,6.9.07,13.8-.19,20.71-.16,4.33-5.21,7.62-9.4,5.68-3.25-1.51-5.13-3.87-5.12-7.57.01-6.34-.03-12.68,0-19.02,0-2.51,1.29-3.56,3.71-3.16,1.67.28,2.34,1.08,2.36,3.12.04,3.17.01,6.34.01,9.51-.01,0-.02,0-.03,0Z"/>
  <path class="cls-1" d="m454.32,538.35c-4.57-.24-6.28-1.8-7.3-5.18-.42-1.41-.78-2.83-.83-4.3-.06-1.68.69-2.58,2.12-2.74,2.07-.24,3.07.36,3.45,2.16.16.79.15,1.62.25,2.42.2,1.51.85,2.23,2.04,2.28,1.14.05,1.58-.42,1.89-2.05.55-2.85-.3-4.55-3.07-5.87-3.64-1.74-5.89-4.53-6.5-8.54-.54-3.53,1.53-5.87,3.97-7.87,1.89-1.56,4.11-1.32,6.23-.37,3.11,1.4,5.41,6.11,4.67,9.43-.4,1.82-1.29,2.51-3.08,2.38-1.48-.11-2-.55-2.17-2.09-.11-.97-.03-1.95-.12-2.92-.14-1.57-.83-2.3-2.01-2.23-1.09.06-2.04,1.01-2.07,2.33-.03,1.87.57,3.54,2.16,4.67.92.66,1.9,1.26,2.89,1.81,2.14,1.2,3.32,3,3.66,5.44.21,1.53.35,3.06.39,4.61.13,4.42-1.7,6.22-6.55,6.62Z"/>
  <path class="cls-1" d="m597.93,523.15c0,3.33.04,6.65-.01,9.98-.04,2.85-.81,3.7-3.57,4.32-2.22.49-4.38,1.01-6.65-.05-2.44-1.14-4-2.9-4.05-5.57-.12-5.76-.24-11.52,0-17.27.18-4.41,4.93-7.62,9.19-6.63.39.09.79.18,1.18.28,2.99.75,3.86,1.81,3.91,4.96.05,3.32.01,6.65.01,9.98Zm-4.71-2.39c0-2.13.03-3.91-.01-5.69-.02-1.03-.36-1.93-1.53-2.19-1.07-.25-2.31.38-2.79,1.47-.19.43-.29.93-.31,1.41-.27,4.93-.32,9.86-.02,14.79.11,1.73,1.07,2.6,2.6,2.54,1.35-.05,2.26-1.03,2.04-2.73-.44-3.33.34-6.63.02-9.6Z"/>
  <path class="cls-1" d="m623.77,522.64c0,3.16.06,6.32-.01,9.48-.11,5.09-4.71,8.04-9.37,5.93-3.06-1.39-5.08-3.62-5.03-7.32.08-5.35.05-10.7-.02-16.05-.02-1.86.82-3.11,2.04-4.45,2.57-2.81,5.48-3.07,8.85-1.93,2.41.81,3.45,1.99,3.51,4.61.08,3.24.02,6.48.02,9.72h.01Zm-4.69.37h-.02c0-2.68,0-5.36,0-8.04,0-.85-.19-1.66-1.09-2-.9-.34-1.75-.17-2.51.44-.76.61-1.04,1.44-1.05,2.37-.03,2.92-.5,5.83-.34,8.76.12,2.19.17,4.38.38,6.56.13,1.33,1.42,2.33,2.7,2.35,1.1.02,1.67-.69,1.88-2.39.06-.48.05-.97.05-1.46,0-2.19,0-4.39,0-6.58Z"/>
  <path class="cls-1" d="m561.18,522.81c0-3.9-.02-7.8,0-11.7.02-2.27.41-2.74,2.68-2.83,2.51-.1,5.04-.1,7.55-.02,1.76.05,2.36.67,2.4,2.1.04,1.6-.55,2.22-2.29,2.48-.96.14-1.94.25-2.88.49-1.77.44-2.42,1.26-2.52,3.09-.04.73.03,1.46.08,2.19.07,1.17.71,1.75,1.89,1.76.57,0,1.14.01,1.7.1,1.56.24,2.3,1.19,2.15,2.69-.14,1.36-.94,2.05-2.5,2.11-3.02.12-3.2.31-3.19,3.41,0,2.03.02,4.06-.01,6.09-.03,2.05-.62,2.76-2.2,2.83-1.78.08-2.78-.84-2.84-2.85-.07-2.19,0-4.39,0-6.58,0-1.79,0-3.57,0-5.36,0,0-.02,0-.02,0Z"/>
  <path class="cls-1" d="m404.9,508.22c1.22,0,2.44-.07,3.65.02,1.61.11,2.28.86,2.21,2.29-.07,1.48-.72,2.19-2.25,2.29-.97.06-1.95,0-2.92.04-1.58.07-1.99.43-2.18,2-.1.8-.08,1.62-.05,2.43.09,2.58.3,2.8,2.86,3.17.24.03.48.06.72.12,1.45.36,2.13,1.24,2.01,2.59-.12,1.27-.82,1.87-2.31,1.98-3.04.23-3.26.45-3.28,3.46-.01,2.11.04,4.22-.01,6.33-.05,1.9-.78,2.67-2.38,2.68-1.55.01-2.37-.8-2.57-2.6-.06-.56-.04-1.13-.04-1.7-.02-7.05-.03-14.11-.05-21.16,0-2.94.98-3.94,3.94-3.95.89,0,1.78,0,2.67,0v.05Z"/>
  <path class="cls-1" d="m472.33,522.84c-.14-3.85.15-7.58-.19-11.3-.05-.55.04-1.14.18-1.68.31-1.22,1.26-1.63,2.4-1.63,1.06,0,1.93.42,2.23,1.51.19.69.34,1.44.29,2.15-.48,7.12-.09,14.25-.22,21.38-.01.73.03,1.46-.04,2.19-.13,1.36-.71,1.98-1.89,2.12-1.36.16-2.45-.51-2.79-1.77-.12-.46-.21-.97-.16-1.44.35-3.88.05-7.77.19-11.54Z"/>
</svg>