<?xml version="1.0" encoding="UTF-8"?>
<svg id="Capa_1" data-name="Capa 1" xmlns="http://www.w3.org/2000/svg" viewBox="0 0 800 800">
  <defs>
    <style>
      .cls-1 {
        letter-spacing: -.03em;
      }

      .cls-2, .cls-3, .cls-4 {
        fill: #cda077;
      }

      .cls-3 {
        font-family: Lato-Light, Lato;
        font-size: 40.09px;
        font-weight: 300;
      }

      .cls-4 {
        font-family: Lato-Black, Lato;
        font-size: 55.37px;
        font-weight: 800;
      }
    </style>
  </defs>
  <path class="cls-2" d="m475.13,265.47v-30.43h-46.78v26.52c0,7.28-2.41,14.12-6.63,20-8.54,11.95-24.53,20-42.83,20v-66.51h-54.01v72.27c.42-.01.82-.06,1.24-.06,19.92,0,36.08,16.16,36.08,36.1s-16.16,36.1-36.08,36.1c-.42,0-.83-.05-1.24-.06v72.27h54.01v-66.51c18.3,0,34.3,8.05,42.83,20,4.22,5.88,6.63,12.72,6.63,20v26.52h46.78v-30.43c0-28.37-18.76-53.2-46.78-66.82-14.46-7.02-31.37-11.06-49.46-11.06,18.09,0,35-4.03,49.46-11.06,28.02-13.61,46.78-38.45,46.78-66.82Z"/>
  <g>
    <text class="cls-4" transform="translate(164.62 519.87)"><tspan x="0" y="0">KI MAN</tspan><tspan class="cls-1" x="202.6" y="0">A</tspan><tspan x="241.75" y="0">GEMENT</tspan></text>
    <text class="cls-3" transform="translate(284.64 557.51)"><tspan x="0" y="0">Bienes Raíces</tspan></text>
  </g>
</svg>