<?xml version="1.0" encoding="UTF-8"?>
<svg id="Capa_2" data-name="Capa 2" xmlns="http://www.w3.org/2000/svg" viewBox="0 0 259.79 203.5">
  <defs>
    <style>
      .cls-1 {
        fill: #5e905f;
      }
    </style>
  </defs>
  <g id="Layer_1" data-name="Layer 1">
    <g>
      <g>
        <path class="cls-1" d="m28.24,106.06c0,1.63-.33,2.7-.99,3.21-.66.5-1.88.76-3.67.76H7.38c-1.32,0-2.16-.19-2.51-.58-.35-.39-.52-1.21-.52-2.45,0-.7.39-1.81,1.17-3.32.78-1.52,1.63-3.94,2.56-7.28.93-3.34,1.79-7.85,2.56-13.52.78-5.67,1.17-13.01,1.17-22.03v-.58c0-6.68-.11-12.12-.33-16.32-.22-4.2-.44-7.56-.66-10.08-.22-2.52-.44-4.39-.66-5.59-.22-1.2-.33-2.16-.33-2.86,0-1.09.15-1.83.46-2.21.31-.39,1.12-.58,2.43-.58h11.11c1.16,0,1.93.19,2.31.58.39.39.58,1.13.58,2.21,0,1.94-.04,4-.12,6.18-.08,2.18-.14,4.64-.17,7.4-.04,2.76-.1,5.89-.17,9.38-.08,3.5-.12,7.46-.12,11.89v.58c0,7.77.12,14.34.35,19.7.23,5.36.47,9.79.7,13.29.23,3.5.47,6.2.7,8.1.23,1.9.35,3.28.35,4.14ZM25.56,7.46c0,2.1-.75,3.89-2.26,5.36-1.5,1.48-3.26,2.21-5.26,2.21s-3.86-.74-5.32-2.21c-1.46-1.48-2.2-3.26-2.2-5.36s.73-3.77,2.2-5.25c1.46-1.48,3.24-2.21,5.32-2.21s3.76.74,5.26,2.21c1.5,1.48,2.26,3.23,2.26,5.25Z"/>
        <path class="cls-1" d="m78.01,88.93c0,2.18-.39,3.61-1.17,4.31-.78.7-2.14,1.05-4.08,1.05h-24.59c-2.49,0-4.74-.41-6.76-1.22-2.02-.82-3.75-2.31-5.19-4.49-1.44-2.17-2.55-5.17-3.32-8.97-.78-3.81-1.17-8.74-1.17-14.8v-6.53c0-3.42.13-6.76.41-10.02.27-3.26.6-6.29.99-9.09.39-2.8.83-5.28,1.34-7.46.5-2.17.95-3.85,1.34-5.01.47-1.4.89-2.31,1.28-2.74.39-.43,1.05-.64,1.98-.64h8.39c.47,0,.76.23.87.7.12.47.18.93.18,1.4,0,.23-.08,1.34-.23,3.32-.16,1.98-.35,4.39-.58,7.23-.23,2.84-.43,5.87-.58,9.09-.16,3.23-.23,6.24-.23,9.03s.08,5.54.23,8.45c.15,2.91.52,5.58,1.11,7.98.58,2.41,1.46,4.41,2.62,6,1.17,1.59,2.76,2.39,4.78,2.39,2.49,0,4.45-1.63,5.89-4.9,1.44-3.26,2.16-8.66,2.16-16.2,0-3.81-.08-7.5-.23-11.07-.16-3.57-.33-6.8-.52-9.67-.19-2.87-.37-5.28-.52-7.23-.16-1.94-.23-3.22-.23-3.85,0-1.79.5-2.68,1.52-2.68h12c.85,0,1.4.29,1.63.87.23.58.35,1.46.35,2.62,0,.23-.02.89-.06,1.98-.04,1.09-.08,2.84-.12,5.24-.04,2.41-.08,5.61-.12,9.62-.04,4-.06,9.03-.06,15.09,0,2.95.04,6.06.12,9.32.08,3.26.15,6.35.23,9.27.08,2.91.15,5.42.23,7.52.08,2.1.12,3.46.12,4.08Z"/>
        <path class="cls-1" d="m129.29,92.07c0,.86-.16,1.44-.47,1.75-.31.31-.89.47-1.75.47h-30.38c-2.41,0-4.5-.33-6.25-.99-1.75-.66-3.21-1.79-4.38-3.38-1.17-1.59-2.02-3.71-2.57-6.35-.55-2.64-.82-5.94-.82-9.91,0-3.73.35-7.01,1.05-9.85.7-2.84,1.93-5.52,3.68-8.04,1.75-2.52,4.11-5.01,7.07-7.46s6.66-5.11,11.1-7.98l5.61-3.61c0-1.48-.72-2.78-2.16-3.9-1.44-1.13-2.98-1.69-4.61-1.69-2.73,0-4.87.7-6.43,2.1-1.56,1.4-2.69,3.54-3.39,6.41-.16.39-.55.76-1.17,1.11s-1.6.52-2.92.52c-1.4,0-2.73-.64-3.97-1.92-1.25-1.28-1.87-3.21-1.87-5.77,0-3.26,1.5-5.9,4.5-7.93,3-2.02,7.07-3.03,12.21-3.03h4.44c3.5,0,6.62.45,9.35,1.34,2.73.89,5,2.43,6.84,4.6,1.83,2.18,3.23,5.03,4.21,8.57.97,3.54,1.46,7.91,1.46,13.11v22.38c0,3.26.08,5.98.23,8.16.15,2.18.35,3.98.58,5.42.23,1.44.43,2.6.58,3.5.15.89.23,1.69.23,2.39Zm-15.62-49.53c-2.95,2.18-5.44,4.33-7.46,6.47-2.02,2.14-3.63,4.27-4.84,6.41-1.21,2.14-2.06,4.24-2.56,6.29-.51,2.06-.76,4.14-.76,6.24,0,4.2.74,7.27,2.21,9.21,1.48,1.94,3.46,2.91,5.94,2.91,1.94-.23,3.44-1.03,4.49-2.39,1.05-1.36,1.79-3.01,2.21-4.95.43-1.94.66-3.98.7-6.12.04-2.14.06-4.1.06-5.89v-18.18Z"/>
        <path class="cls-1" d="m186.17,91.61c0,1.79-1.05,2.68-3.15,2.68h-17.48c-1.32,0-2.18-.19-2.56-.58-.39-.39-.58-1.13-.58-2.21,0-.62.25-1.65.76-3.09.5-1.44,1.07-3.69,1.69-6.76.62-3.07,1.18-7.19,1.69-12.35.5-5.17.76-11.83.76-19.99,0-1.79-.04-3.67-.12-5.65-.08-1.98-.29-3.79-.64-5.42s-.93-2.99-1.75-4.08c-.82-1.09-1.96-1.63-3.44-1.63-1.17,0-2.31.45-3.44,1.34-1.13.89-2.16,2.14-3.09,3.73-.93,1.59-1.67,3.48-2.21,5.65-.54,2.18-.82,4.59-.82,7.23,0,5.83.27,11.01.82,15.56.54,4.55,1.15,8.49,1.81,11.83.66,3.34,1.26,6.06,1.81,8.16.54,2.1.82,3.54.82,4.31,0,1.63-.35,2.7-1.05,3.21-.7.51-1.94.76-3.73.76h-13.99c-1.86,0-3.11-.31-3.73-.93-.62-.62-.93-1.63-.93-3.03,0-.78.27-2.21.82-4.31.54-2.1,1.15-4.82,1.81-8.16.66-3.34,1.26-7.28,1.81-11.83.54-4.55.82-9.73.82-15.56,0-2.87-.08-5.67-.23-8.39-.16-2.72-.31-5.19-.47-7.4-.16-2.21-.31-4.08-.47-5.59-.16-1.52-.23-2.51-.23-2.97,0-1.24.15-2.02.47-2.33.31-.31,1.13-.47,2.45-.47h9.09c1.48,0,2.31.72,2.51,2.16.19,1.44.29,4.02.29,7.75,3.26-3.96,6.14-6.86,8.62-8.68,2.49-1.82,5.01-2.74,7.58-2.74,3.96,0,7.17,1.19,9.62,3.55,2.45,2.37,3.67,6.12,3.67,11.25v17.95c0,5.13.23,9.71.7,13.75.47,4.04.97,7.58,1.52,10.61.54,3.03,1.05,5.59,1.51,7.69.47,2.1.7,3.77.7,5.01Z"/>
        <path class="cls-1" d="m209.01,84.85c0,2.56-.86,4.78-2.56,6.64-1.71,1.87-3.89,2.8-6.53,2.8s-4.78-.93-6.41-2.8c-1.63-1.86-2.45-4.08-2.45-6.64s.82-4.9,2.45-6.76c1.63-1.87,3.77-2.8,6.41-2.8s4.82.93,6.53,2.8c1.71,1.86,2.56,4.12,2.56,6.76Z"/>
        <path class="cls-1" d="m255.52,79.49c0,4.66-1.4,8.29-4.2,10.9-2.8,2.6-7.11,3.9-12.94,3.9h-7.11c-3.03,0-5.77-.58-8.22-1.75-2.45-1.17-4.57-3.03-6.35-5.59-1.79-2.56-3.17-5.94-4.14-10.14-.97-4.2-1.46-9.32-1.46-15.38v-2.33c0-6.84.54-12.63,1.63-17.37,1.09-4.74,2.68-8.58,4.78-11.54,2.1-2.95,4.68-5.07,7.75-6.35,3.07-1.28,6.59-1.92,10.55-1.92h4.08c4.51,0,8.12,1.21,10.84,3.61,2.72,2.41,4.08,5.52,4.08,9.32,0,1.71-.31,3.21-.93,4.49-.62,1.28-1.46,2.33-2.51,3.15s-2.21,1.44-3.5,1.86c-1.28.43-2.58.64-3.9.64-2.02,0-3.5-.33-4.43-.99-.93-.66-1.4-1.46-1.4-2.39,0-.47.02-.82.06-1.05.04-.23.1-.5.18-.82.08-.31.13-.72.17-1.22.04-.5.06-1.22.06-2.16,0-1.94-.56-3.44-1.69-4.49-1.13-1.05-2.31-1.57-3.55-1.57-1.01,0-1.96.29-2.86.87-.89.58-1.65,1.67-2.27,3.26-.62,1.59-1.13,3.79-1.52,6.59-.39,2.8-.58,6.45-.58,10.96v4.78c0,7.54,1.11,13.13,3.32,16.78,2.21,3.65,5.88,5.48,11.01,5.48,2.17,0,3.96-.31,5.36-.93,1.4-.62,2.51-1.3,3.32-2.04.82-.74,1.44-1.42,1.87-2.04.43-.62.8-.93,1.11-.93.78,0,1.53.51,2.27,1.52.74,1.01,1.11,2.64,1.11,4.9Z"/>
      </g>
      <g>
        <path class="cls-1" d="m48.95,169c0,6.68-.49,12.24-1.46,16.67-.97,4.43-2.33,7.97-4.08,10.61-1.75,2.64-3.9,4.51-6.47,5.59-2.56,1.09-5.4,1.63-8.51,1.63h-6.88c-3.42,0-6.47-.51-9.15-1.51s-4.94-2.72-6.76-5.13c-1.83-2.41-3.23-5.59-4.2-9.56-.97-3.96-1.46-8.93-1.46-14.92v-2.21c0-6.14.39-11.62,1.17-16.43.78-4.82,2-8.9,3.67-12.24,1.67-3.34,3.86-5.9,6.58-7.69,2.72-1.79,6.06-2.68,10.02-2.68h3.26c3.57,0,6.84.54,9.79,1.63,2.95,1.09,5.5,3.07,7.63,5.94,2.14,2.88,3.81,6.76,5.01,11.65,1.2,4.9,1.81,11.11,1.81,18.65Zm-16.32-4.49c0-4.96-.25-9.09-.76-12.38-.51-3.29-1.17-5.89-1.98-7.79-.82-1.9-1.79-3.24-2.91-4.01-1.13-.78-2.31-1.16-3.55-1.16-1.32,0-2.51.33-3.55.99-1.05.66-1.92,1.88-2.62,3.66-.7,1.78-1.24,4.23-1.63,7.33-.39,3.1-.58,7.09-.58,11.98,0,5.66.25,10.16.76,13.49.5,3.33,1.18,5.89,2.04,7.67.85,1.78,1.83,2.95,2.91,3.49,1.09.54,2.21.81,3.38.81.93,0,1.9-.25,2.91-.76,1.01-.5,1.92-1.61,2.74-3.31.82-1.71,1.5-4.13,2.04-7.27.54-3.14.82-7.38.82-12.73Z"/>
        <path class="cls-1" d="m74.13,199.53c0,1.63-.35,2.7-1.05,3.21-.7.51-1.94.76-3.73.76h-13.99c-1.86,0-3.11-.31-3.73-.93-.62-.62-.93-1.63-.93-3.03,0-.78.27-2.47.82-5.07.54-2.6,1.15-5.9,1.81-9.91.66-4,1.26-8.62,1.81-13.87.54-5.25.82-10.9.82-16.96v-6.06c0-6.6-.06-11.96-.17-16.08-.12-4.12-.23-7.36-.35-9.73-.12-2.37-.21-4.14-.29-5.3-.08-1.17-.12-2.1-.12-2.8,0-1.24.1-2.17.29-2.8.19-.62,1.03-.93,2.51-.93h8.51c1.48,0,2.41.31,2.8.93.39.62.58,1.56.58,2.8,0,.78-.04,1.73-.12,2.86-.08,1.13-.17,2.9-.29,5.3-.12,2.41-.21,5.65-.29,9.73-.08,4.08-.12,9.42-.12,16.03v6.06c0,6.06.27,11.71.82,16.96.54,5.25,1.15,9.87,1.81,13.87.66,4,1.26,7.3,1.81,9.91.54,2.6.82,4.29.82,5.07Z"/>
        <path class="cls-1" d="m160.14,201.51c0,1.32-.54,1.98-1.63,1.98h-19.81c-1.56,0-2.33-.82-2.33-2.45,0-1.01.25-2.72.76-5.13.5-2.41,1.09-5.3,1.75-8.68.66-3.38,1.24-7.19,1.75-11.42.5-4.23.76-8.72.76-13.46,0-2.1-.08-4.33-.23-6.7-.16-2.37-.47-4.53-.93-6.47-.47-1.94-1.17-3.55-2.1-4.84-.93-1.28-2.21-1.92-3.85-1.92-1.17,0-2.27.47-3.32,1.4-1.05.93-1.96,2.27-2.74,4.02-.78,1.75-1.4,3.83-1.86,6.24-.47,2.41-.7,5.13-.7,8.16,0,4.66.25,9.15.76,13.46.5,4.31,1.07,8.22,1.69,11.71.62,3.5,1.18,6.43,1.69,8.8.5,2.37.76,3.94.76,4.72,0,1.71-.86,2.56-2.56,2.56h-17.13c-1.32,0-2.23-.23-2.74-.7-.51-.47-.76-1.17-.76-2.1,0-.23.1-1.05.29-2.45.19-1.4.47-3.17.82-5.3.35-2.14.7-4.54,1.05-7.23s.7-5.42,1.05-8.22c.35-2.8.62-5.55.82-8.28.19-2.72.29-5.2.29-7.46s-.08-4.62-.23-6.88c-.15-2.25-.46-4.25-.93-6s-1.12-3.17-1.97-4.25c-.85-1.09-1.93-1.63-3.24-1.63-1.16,0-2.27.35-3.35,1.05-1.08.7-2.04,1.83-2.89,3.38-.85,1.56-1.52,3.61-2.02,6.18-.5,2.56-.75,5.71-.75,9.44,0,4.74.25,9.23.76,13.46.5,4.24,1.05,8.02,1.63,11.36.58,3.34,1.13,6.16,1.63,8.45.5,2.29.76,3.91.76,4.84,0,1.56-.93,2.33-2.8,2.33h-15.5c-1.86,0-3.11-.31-3.73-.93-.62-.62-.93-1.63-.93-3.03,0-.78.27-2.21.82-4.31.54-2.1,1.15-4.82,1.81-8.16.66-3.34,1.26-7.28,1.81-11.83.54-4.55.82-9.73.82-15.56,0-2.87-.08-5.67-.23-8.39-.16-2.72-.31-5.19-.47-7.4-.16-2.21-.31-4.08-.47-5.59-.16-1.52-.23-2.51-.23-2.97,0-1.24.27-2.02.82-2.33.54-.31,1.25-.47,2.11-.47h9.41c.86,0,1.43.21,1.7.64.27.43.39,1.11.35,2.04-.04.93-.16,2.2-.35,3.79-.19,1.59-.29,3.56-.29,5.89,3.18-4.58,6.11-8.04,8.79-10.37,2.68-2.33,5.88-3.5,9.6-3.5,1.16,0,2.27.14,3.32.41,1.05.28,2.09.79,3.14,1.53,1.05.75,2.13,1.84,3.26,3.3,1.13,1.45,2.35,3.36,3.67,5.71,2.96-4,5.58-6.94,7.88-8.83,2.29-1.88,4.81-2.82,7.53-2.82,4.2,0,7.35,1.46,9.46,4.38,2.1,2.92,3.15,6.99,3.15,12.2,0,2.72-.02,5.55-.06,8.46-.04,2.92-.06,5.51-.06,7.76,0,5.06.25,9.73.76,14.01.5,4.28,1.05,8.07,1.63,11.38.58,3.31,1.13,6.07,1.63,8.29.5,2.22.76,3.79.76,4.73Z"/>
        <path class="cls-1" d="m210.61,169c0,6.68-.49,12.24-1.46,16.67-.97,4.43-2.33,7.97-4.08,10.61-1.75,2.64-3.9,4.51-6.47,5.59-2.56,1.09-5.4,1.63-8.51,1.63h-6.88c-3.42,0-6.47-.51-9.15-1.51s-4.94-2.72-6.76-5.13c-1.83-2.41-3.23-5.59-4.2-9.56-.97-3.96-1.46-8.93-1.46-14.92v-2.21c0-6.14.39-11.62,1.17-16.43.78-4.82,2-8.9,3.67-12.24,1.67-3.34,3.86-5.9,6.59-7.69,2.72-1.79,6.06-2.68,10.02-2.68h3.26c3.57,0,6.84.54,9.79,1.63,2.95,1.09,5.5,3.07,7.63,5.94,2.14,2.88,3.81,6.76,5.01,11.65,1.2,4.9,1.81,11.11,1.81,18.65Zm-16.32-4.49c0-4.96-.25-9.09-.76-12.38-.51-3.29-1.17-5.89-1.98-7.79-.82-1.9-1.79-3.24-2.91-4.01-1.13-.78-2.31-1.16-3.55-1.16-1.32,0-2.51.33-3.55.99s-1.92,1.88-2.62,3.66c-.7,1.78-1.24,4.23-1.63,7.33-.39,3.1-.58,7.09-.58,11.98,0,5.66.25,10.16.76,13.49.5,3.33,1.18,5.89,2.04,7.67.85,1.78,1.82,2.95,2.91,3.49,1.09.54,2.21.81,3.38.81.93,0,1.9-.25,2.91-.76,1.01-.5,1.92-1.61,2.74-3.31.82-1.71,1.5-4.13,2.04-7.27.54-3.14.82-7.38.82-12.73Z"/>
        <path class="cls-1" d="m259.79,183.68c0,6.84-1.67,11.85-5.01,15.04-3.34,3.19-8.78,4.78-16.32,4.78h-7.46c-6.29,0-10.92-1.16-13.87-3.47-2.95-2.31-4.43-5.67-4.43-10.06,0-2.32.64-4.17,1.92-5.53,1.28-1.36,2.47-2.04,3.55-2.04.62,0,1.15.33,1.57.99.43.66,1.03,1.4,1.81,2.21.78.82,1.87,1.55,3.26,2.21,1.4.66,3.38.99,5.94.99,1.24,0,2.49-.08,3.73-.23,1.24-.16,2.39-.47,3.44-.93,1.05-.47,1.94-1.09,2.68-1.87.74-.78,1.18-1.79,1.34-3.04,0-1.01-.06-1.92-.17-2.74-.12-.82-.45-1.64-.99-2.45-.54-.82-1.36-1.71-2.45-2.69-1.09-.97-2.56-2.16-4.43-3.56l-4.31-3.15c-2.8-2.02-5.13-3.75-6.99-5.2-1.86-1.44-3.36-2.84-4.49-4.21-1.13-1.36-1.92-2.78-2.39-4.26-.47-1.48-.7-3.27-.7-5.37,0-6.31,1.88-10.88,5.65-13.72,3.77-2.84,9.3-4.26,16.61-4.26h3.15c5.83,0,10.18,1.01,13.05,3.03,2.87,2.02,4.31,4.7,4.31,8.04,0,3.03-.82,5.32-2.45,6.88-1.63,1.56-3.54,2.33-5.71,2.33-2.49,0-3.73-.43-3.73-1.28,0-3.26-.82-5.81-2.45-7.63-1.63-1.82-4.08-2.74-7.34-2.74-1.63,0-3.13.52-4.49,1.57-1.36,1.05-2.04,2.43-2.04,4.14,0,1.09.31,2.14.93,3.15.62,1.01,1.46,2.02,2.51,3.03,1.05,1.01,2.23,1.98,3.55,2.91,1.32.93,2.68,1.83,4.08,2.68l3.85,2.33c3.03,1.87,5.52,3.67,7.46,5.42,1.94,1.75,3.5,3.58,4.66,5.48,1.17,1.91,1.98,3.95,2.45,6.12.47,2.18.7,4.55.7,7.11Z"/>
      </g>
      <path class="cls-1" d="m91.05,111.52v6.48c0,.84.68,1.51,1.52,1.5l74.92-.98,74.92.98c.84.01,1.52-.66,1.52-1.5v-6.48c0-.84-.68-1.51-1.52-1.5l-74.92.98-74.92-.98c-.84-.01-1.52.66-1.52,1.5Z"/>
    </g>
  </g>
</svg>