<?xml version="1.0" encoding="UTF-8"?>
<svg id="Capa_1" data-name="Capa 1" xmlns="http://www.w3.org/2000/svg" viewBox="0 0 800 800">
  <defs>
    <style>
      .cls-1 {
        font-size: 41.87px;
      }

      .cls-1, .cls-2 {
        font-family: Geom-Medium, Geom;
        font-variation-settings: 'wght' 500;
        font-weight: 500;
      }

      .cls-1, .cls-3 {
        fill: #17c5ce;
      }

      .cls-2 {
        fill: #e22613;
        font-size: 144.27px;
      }

      .cls-4 {
        letter-spacing: .2em;
      }
    </style>
  </defs>
  <text class="cls-2" transform="translate(144.64 498.83)"><tspan x="0" y="0">m</tspan><tspan class="cls-4" x="129.56" y="0">y</tspan><tspan x="236.32" y="0">way</tspan></text>
  <text class="cls-1" transform="translate(238.35 557.99)"><tspan x="0" y="0">english academy</tspan></text>
  <path class="cls-3" d="m487.42,269.51c-2.51,0-4.55,2.04-4.55,4.55v98.19h-50.31l39.34-12.67c1.88-.61,3.15-2.35,3.15-4.33v-99.06c0-2.51-2.04-4.55-4.55-4.55s-4.55,2.04-4.55,4.55v95.74l-38.83,12.5,28.11-21.61c1.12-.86,1.78-2.19,1.78-3.61v-103c0-1.72-.97-3.3-2.52-4.07-1.54-.77-3.39-.6-4.77.44l-46.14,34.73-46.14-34.73c-1.38-1.04-3.22-1.21-4.77-.44-1.54.77-2.52,2.35-2.52,4.07v103c0,1.41.66,2.74,1.78,3.61l28.11,21.61-38.83-12.5v-95.74c0-2.51-2.04-4.55-4.55-4.55s-4.55,2.04-4.55,4.55v99.06c0,1.97,1.27,3.72,3.15,4.33l39.34,12.67h-50.31v-98.19c0-2.51-2.04-4.55-4.55-4.55s-4.55,2.04-4.55,4.55v102.74c0,2.51,2.04,4.55,4.55,4.55h167.64c2.51,0,4.55-2.04,4.55-4.55v-102.74c0-2.51-2.04-4.55-4.55-4.55Zm-128.14,67.47v-91.64l39.78,29.94v92.29l-39.78-30.58Zm48.87-61.7l39.78-29.94v91.64l-39.78,30.58v-92.29Z"/>
</svg>