<?xml version="1.0" encoding="UTF-8"?>
<svg id="Capa_1" data-name="Capa 1" xmlns="http://www.w3.org/2000/svg" viewBox="0 0 800 800">
  <defs>
    <style>
      .cls-1 {
        fill: #7a4384;
      }

      .cls-2 {
        fill: #fb8c23;
      }
    </style>
  </defs>
  <g id="Layer_1-2" data-name="Layer 1-2">
    <path class="cls-2" d="m157.31,344.08h8.53c4.04,0,7.31,3.27,7.31,7.31v56.94h-23.15v-56.94c0-4.04,3.27-7.31,7.31-7.31Z"/>
    <path class="cls-1" d="m150,408.33h23.15v60.47c0,4.04-3.27,7.31-7.31,7.31h-8.53c-4.04,0-7.31-3.27-7.31-7.31v-60.47h0Z"/>
    <path class="cls-2" d="m219.78,350.02c0,.67.29.8.9.39s1.58-1,2.94-1.74c1.72-.91,3.51-1.67,5.36-2.27,2.65-.81,5.42-1.19,8.19-1.12,2.01.02,4.01.23,5.98.62,2.17.41,4.25,1.18,6.15,2.29,1.96,1.17,3.63,2.77,4.87,4.69,1.39,2.29,2.08,4.94,1.97,7.61,0,3,.28,5.99.85,8.93.56,2.85,1.18,5.65,1.86,8.41.68,2.75,1.3,5.48,1.86,8.19.56,2.67.84,5.4.84,8.13,0,5.8-2.33,8.69-6.99,8.69h-13.69c-2.03.19-4.02-.61-5.36-2.14-1.23-1.95-1.8-4.24-1.63-6.54,0-2.73.28-5.45.84-8.13.57-2.72,1.22-5.45,1.82-8.19s1.22-5.56,1.8-8.41c.57-2.94.85-5.93.84-8.93.06-1.44-.23-2.87-.84-4.17-.49-.97-1.2-1.8-2.08-2.44-.8-.55-1.7-.93-2.66-1.12-.87-.18-1.76-.28-2.66-.28-1.86.05-3.69.51-5.36,1.35-2.04,1-3.86,2.39-5.36,4.09-1.79,2.03-3.21,4.37-4.18,6.9-1.19,3.13-1.77,6.47-1.69,9.82-.02,1.97.26,3.93.84,5.81.57,1.77,1.19,3.5,1.86,5.19.68,1.69,1.3,3.37,1.86,5.03.57,1.67.85,3.42.85,5.19.05,1.81-.55,3.57-1.69,4.97-1.37,1.45-3.33,2.19-5.31,2.02h-13.66c-2.02.18-4.02-.56-5.42-2.02-1.14-1.4-1.74-3.16-1.69-4.97,0-1.77.28-3.52.85-5.19.56-1.66,1.22-3.34,1.86-5.03s1.29-3.44,1.85-5.25c.58-1.86.87-3.8.85-5.75.04-1.86-.25-3.72-.85-5.48-.56-1.53-1.22-3.01-1.85-4.4s-1.3-2.8-1.86-4.24c-.6-1.55-.88-3.21-.85-4.87-.03-1.75.79-3.41,2.2-4.46,1.63-1.25,3.46-2.21,5.42-2.83,2.2-.72,4.47-1.23,6.77-1.52,2.11-.28,4.24-.43,6.37-.45,1.85-.13,3.7.3,5.31,1.22.92.48,1.55,1.37,1.69,2.4Z"/>
    <path class="cls-2" d="m292.36,380.38c-.01,2.13.26,4.26.79,6.32.46,1.93,1.29,3.74,2.44,5.36,1.14,1.54,2.63,2.79,4.35,3.65,1.99.95,4.18,1.41,6.38,1.35,2.55.09,5.08-.37,7.43-1.36,3.31-1.46,5.88-4.22,7.1-7.63.53-1.42.97-2.87,1.3-4.35.18-.74.61-1.4,1.22-1.86.5-.39,1.12-.6,1.75-.62.67,0,1.32.27,1.8.74.58.63.87,1.47.79,2.31-.13,4.46-1.97,8.71-5.14,11.85-2.06,2.03-4.49,3.63-7.16,4.74-3.45,1.37-7.14,2.02-10.84,1.91-5.05.08-10.08-.64-14.9-2.14-4.03-1.27-7.76-3.34-10.96-6.09-2.97-2.51-5.33-5.66-6.9-9.22-1.57-3.75-2.36-7.79-2.31-11.85-.05-4.08.74-8.13,2.31-11.9,1.49-3.53,3.72-6.71,6.54-9.31,2.98-2.71,6.48-4.78,10.28-6.09,4.39-1.46,9-2.15,13.63-2.05,7.53,0,13.45,1.49,17.77,4.46,4.23,2.76,6.69,7.54,6.49,12.58.09,2.52-.69,4.99-2.19,7-1.46,1.87-3.31,3.41-5.42,4.51-2.2,1.15-4.56,1.98-7,2.44-2.32.48-4.68.73-7.05.74h-4.01c-1.38,0-2.76.12-4.12.39-1.14.21-2.22.67-3.16,1.35-.83.67-1.29,1.69-1.23,2.75Zm11.73-21.55c0-1.1-.07-2.19-.22-3.28-.14-.98-.37-1.95-.68-2.89-.24-.75-.61-1.45-1.07-2.08-.35-.49-.92-.79-1.52-.79-1.17.05-2.27.53-3.11,1.35-1.13,1.06-2.04,2.33-2.7,3.73-.85,1.74-1.47,3.58-1.86,5.48-.46,2.13-.69,4.3-.68,6.48,0,2.56,1.1,3.84,3.28,3.84,1.43.04,2.84-.39,4.01-1.22,1.09-.79,2-1.81,2.66-2.98.68-1.22,1.17-2.53,1.46-3.9.28-1.23.43-2.48.45-3.74Z"/>
    <path class="cls-2" d="m416.79,370.79c.76-2.23,1.22-4.55,1.35-6.9.09-1.79,0-3.59-.28-5.36-.21-1.31-.51-2.61-.9-3.89-.28-.76-.45-1.56-.51-2.38-.12-1.58.36-3.15,1.35-4.4.91-.99,2.64-1.47,5.2-1.47h4.51c3.31,0,4.97,1.73,4.97,5.19,0,2.04-.42,4.06-1.22,5.93-.87,2.09-1.86,4.12-2.98,6.09-1.22,2.02-2.44,4.04-3.73,6.09-1.29,1.95-2.44,3.98-3.45,6.09-1.62,3.39-3.09,6.55-4.4,9.49-1.21,2.62-1.87,5.46-1.92,8.34-.06,1.26.09,2.52.45,3.73.27.61.42,1.26.45,1.92-.04.98-.48,1.89-1.22,2.53-1.09.91-2.49,1.34-3.9,1.22h-14.24c-2.79,0-4.66-.49-5.59-1.46-1.12-1.33-1.84-2.94-2.08-4.65-.81-3.25-1.72-6.31-2.72-9.2-.97-2.89-2.07-5.7-3.26-8.41-.05-.27-.3-.47-.57-.45-.45,0-.94.56-1.46,1.69-.59,1.31-1.08,2.67-1.47,4.06-.45,1.58-.84,3.2-1.22,4.87-.3,1.3-.47,2.62-.51,3.95-.06,1.26.09,2.52.46,3.73.26.61.42,1.26.45,1.92-.04.98-.48,1.89-1.22,2.53-1.08.9-2.48,1.34-3.89,1.22h-14.17c-2.79,0-4.64-.49-5.59-1.46-1.08-1.27-1.8-2.81-2.08-4.46-.86-3.68-1.95-7.3-3.28-10.83-1.28-3.39-2.78-6.89-4.51-10.5-.99-2.03-2.03-4.04-3.17-6.09s-2.18-4.01-3.16-6.09c-.94-1.98-1.76-4.01-2.44-6.09-.67-1.91-1.01-3.91-1.02-5.93,0-3.46,1.66-5.19,4.97-5.19h13.78c2.56,0,4.29.49,5.19,1.47.99,1.24,1.47,2.81,1.35,4.4,0,.61-.06,1.56-.17,2.87s-.17,2.85-.17,4.58.07,3.65.23,5.64c.15,2.02.49,4.02,1.01,5.98.56,2.3,1.36,4.53,2.38,6.66.86,1.83,1.84,3.6,2.94,5.3.76,1.34,1.68,2.59,2.73,3.72.86.83,1.49,1.22,1.86,1.22s1.11-.74,2.19-2.25c1.2-1.65,2.29-3.38,3.25-5.18,1.01-1.86,1.9-3.79,2.66-5.76.71-1.88.85-3.19.4-3.95-.76-1.43-1.57-2.91-2.44-4.46-.89-1.57-1.7-3.19-2.41-4.85-.71-1.63-1.31-3.31-1.8-5.02-.49-1.63-.74-3.33-.74-5.03,0-3.46,1.66-5.19,4.97-5.19h14.23c1.66-.12,3.3.36,4.63,1.35,1.01.86,1.52,2.44,1.52,4.57,0,.61,0,1.56-.17,2.87s-.17,2.85-.17,4.58.07,3.65.23,5.64c.15,2.02.49,4.02,1.01,5.98.56,2.3,1.35,4.53,2.38,6.66.86,1.83,1.84,3.6,2.94,5.3.78,1.27,1.71,2.45,2.77,3.51.85.83,1.47,1.22,1.85,1.22s1.02-.63,1.92-1.91c1.03-1.49,1.97-3.03,2.83-4.63.97-1.8,1.91-3.65,2.81-5.64.77-1.65,1.44-3.34,2.01-5.07Z"/>
    <path class="cls-2" d="m467.95,360.51c1.51,0,2.98-.45,4.23-1.29,1.35-.88,2.63-1.86,3.84-2.94,1.19-1.05,2.43-2.03,3.73-2.94,1.1-.81,2.42-1.26,3.79-1.29.38,0,1.01,0,1.91.11,1,.11,1.95.48,2.77,1.07,1.06.81,1.9,1.88,2.44,3.11.82,1.96,1.18,4.08,1.07,6.2.09,2.17-.25,4.34-1.01,6.38-.53,1.34-1.37,2.53-2.44,3.5-.79.72-1.74,1.24-2.77,1.52-.66.19-1.34.31-2.02.34-1.33-.03-2.61-.49-3.65-1.3-1.21-.87-2.45-1.81-3.73-2.81-1.26-1-2.57-1.93-3.95-2.77-1.29-.8-2.77-1.22-4.29-1.22-1.66-.05-3.31.22-4.87.79-1.32.58-2.09,1.96-1.91,3.39,0,2.18.06,4.81.17,7.89.1,3,.55,5.98,1.35,8.87.71,2.67,2.03,5.14,3.84,7.22,2.01,2.09,4.84,3.18,7.74,2.98,1.78.1,3.53-.42,4.97-1.46,1.25-1.03,2.28-2.3,3.05-3.73.85-1.55,1.6-3.16,2.25-4.8.68-1.69,1.53-3.3,2.55-4.8,1.01-1.47,2.32-2.72,3.84-3.65,1.92-1.12,4.13-1.67,6.36-1.56,1.84-.03,3.66.39,5.3,1.22,1.44.74,2.69,1.81,3.65,3.11.96,1.33,1.67,2.82,2.08,4.41.46,1.69.69,3.44.68,5.19,0,3.98-1.33,6.92-3.96,8.81s-6.88,2.81-12.75,2.81h-46.43c-4.68,0-7.01-2.71-7-8.13,0-2.55.28-5.08.85-7.57.56-2.44,1.22-4.99,1.85-7.57s1.3-5.17,1.86-7.85c1.14-5.55,1.14-11.27,0-16.81-.56-2.67-1.18-5.29-1.86-7.85-.68-2.56-1.3-5.08-1.85-7.57-.57-2.44-.85-4.95-.85-7.46-.03-5.51,2.3-8.27,7-8.27h46.55c5.87,0,10.12.94,12.75,2.83,2.63,1.88,3.96,4.87,3.96,8.92,0,1.72-.23,3.42-.68,5.08-.42,1.58-1.12,3.07-2.08,4.4-.97,1.3-2.22,2.36-3.65,3.11-1.64.84-3.46,1.25-5.3,1.22-2.18.11-4.35-.4-6.26-1.46-1.51-.95-2.82-2.19-3.84-3.65-1.03-1.5-1.89-3.11-2.55-4.8-.64-1.65-1.39-3.25-2.25-4.8-.78-1.4-1.81-2.64-3.05-3.65-1.44-1.05-3.19-1.57-4.97-1.47-2.89-.25-5.74.79-7.81,2.83-1.82,2.06-3.13,4.52-3.84,7.18-.8,2.87-1.25,5.82-1.35,8.8-.11,3.06-.17,5.66-.17,7.85-.2,1.46.58,2.88,1.91,3.51,1.54.58,3.17.86,4.81.83Z"/>
    <path class="cls-2" d="m522.29,374.63c.04-1.86-.25-3.72-.85-5.48-.54-1.5-1.17-2.97-1.86-4.4-.67-1.39-1.29-2.8-1.85-4.24-.6-1.55-.88-3.21-.85-4.87-.01-1.75.82-3.4,2.24-4.43,1.61-1.25,3.42-2.2,5.36-2.83,2.2-.73,4.47-1.24,6.77-1.52,2.1-.28,4.21-.43,6.32-.45,1.75-.08,3.51.23,5.13.9,1.22.61,1.86,1.33,1.86,2.14,0,.61.16.91.45.91.62-.11,1.21-.38,1.69-.79.92-.64,1.88-1.22,2.86-1.75,1.38-.7,2.81-1.29,4.29-1.75,1.83-.55,3.74-.81,5.65-.78,1.97.01,3.95.17,5.9.48,2.08.3,4.1.93,5.98,1.86,1.99,1.02,3.72,2.46,5.09,4.23,1.67,2.24,2.83,4.83,3.39,7.57.37,1.45.49,2.96.33,4.46-.14,1.54-.69,3.02-1.57,4.29-1.09,1.44-2.56,2.54-4.24,3.18-2.48.92-5.12,1.33-7.76,1.22-2.02.11-4.03-.31-5.84-1.22-2.72-1.45-4.48-4.23-4.63-7.31-.1-1.36.1-2.73.56-4.01,1.21-2.86,1.55-5,1.01-6.43-.33-1.28-1.49-2.17-2.81-2.14-1.44,0-3.05.86-4.87,2.59-1.94,1.89-3.66,3.99-5.13,6.26-1.6,2.42-2.97,4.99-4.07,7.67-.96,2.12-1.52,4.4-1.63,6.72-.01,1.95.27,3.89.84,5.75.57,1.82,1.22,3.56,1.86,5.25s1.3,3.37,1.86,5.03c.57,1.67.85,3.42.85,5.19.05,1.81-.55,3.57-1.69,4.97-1.37,1.45-3.33,2.19-5.31,2.02h-13.64c-2.02.18-4.02-.56-5.42-2.02-1.15-1.4-1.75-3.16-1.69-4.97,0-1.77.28-3.52.85-5.19.56-1.66,1.22-3.34,1.85-5.03s1.3-3.44,1.86-5.25c.59-1.88.87-3.85.85-5.82Z"/>
    <path class="cls-2" d="m622.08,396.52c-.3,0-.68.33-1.13.96-.64.82-1.4,1.55-2.25,2.14-1.37.94-2.87,1.67-4.46,2.17-2.47.75-5.04,1.09-7.61,1.01-6.55,0-11.24-1.22-14.06-3.65-2.8-2.41-4.36-5.96-4.24-9.65-.06-2.47.57-4.91,1.82-7.05,1.28-2.09,2.93-3.92,4.87-5.42,2.15-1.69,4.48-3.15,6.94-4.35,2.59-1.28,5.26-2.49,8.02-3.65l8.19-3.5c2.53-1.08,4.97-2.34,7.31-3.79.61-.29,1.15-.7,1.58-1.22.28-.66.39-1.37.33-2.08-.02-.8-.11-1.59-.28-2.38-.2-1.01-.56-1.98-1.07-2.87-.51-.92-1.17-1.75-1.97-2.44-.87-.71-1.98-1.07-3.11-1.02-1.59-.05-3.14.48-4.37,1.47-1.17.99-2.16,2.17-2.94,3.5-.86,1.46-1.63,2.97-2.31,4.52-.7,1.58-1.55,3.1-2.53,4.52-.99,1.38-2.23,2.57-3.65,3.5-1.69,1.01-3.65,1.5-5.62,1.41-2.99.14-5.92-.87-8.19-2.83-2.04-1.8-3.17-4.4-3.11-7.11-.15-3.07,1.17-6.02,3.56-7.95,2.56-2.01,5.5-3.49,8.64-4.35,3.44-.98,6.97-1.61,10.54-1.86,3.65-.26,6.76-.39,9.32-.39,4.13-.09,8.25.27,12.3,1.07,2.66.51,5.19,1.54,7.44,3.05,1.67,1.14,2.97,2.75,3.73,4.63.72,1.9,1.13,3.9,1.22,5.93.11,2.33.08,4.67-.11,6.99-.18,2.49-.27,5.04-.28,7.67-.01,1.95.27,3.89.84,5.76.57,1.8,1.22,3.56,1.86,5.25s1.3,3.36,1.86,5.02c.57,1.67.86,3.42.85,5.19.03,1.81-.59,3.58-1.75,4.97-1.4,1.47-3.4,2.21-5.42,2.03h-13.52c-1.71.06-3.4-.36-4.87-1.22-1.18-.64-1.92-1.87-1.92-3.22-.01-.15-.03-.3-.06-.45-.02-.18-.18-.32-.37-.32Zm5.53-27.87c0-.61-.13-.95-.39-1.02-.48-.01-.94.15-1.3.45-1.06.68-2.44,1.64-4.12,2.89-1.82,1.36-3.49,2.91-4.97,4.63-1.66,1.9-3.06,4-4.18,6.26-1.18,2.41-1.78,5.07-1.74,7.76-.11,1.18.25,2.36,1.01,3.28.69.68,1.63,1.04,2.59,1.01,1.29-.06,2.53-.56,3.5-1.41,1.31-1.06,2.47-2.29,3.45-3.65,1.13-1.55,2.1-3.22,2.87-4.97.79-1.72,1.4-3.52,1.82-5.36.37-1.58.71-3.25,1.01-5.02.28-1.6.44-3.21.45-4.84Z"/>
    <path class="cls-2" d="m194.9,444.34c.01-2.11-.19-4.21-.62-6.27-.41-1.92-.86-3.79-1.35-5.6s-.95-3.65-1.36-5.41c-.42-1.85-.63-3.75-.62-5.65-.04-1.54.54-3.03,1.61-4.13,1.13-1.14,2.46-2.06,3.92-2.72,1.57-.73,3.24-1.24,4.95-1.52,1.52-.28,3.07-.44,4.62-.46,1.48-.14,2.95.44,3.92,1.57.91,1.42,1.34,3.1,1.22,4.79,0,1.58-.18,3.16-.54,4.7-.35,1.6-.74,3.12-1.15,4.58s-.8,2.81-1.22,4.08c-.32,1.02-.5,2.08-.54,3.14,0,.33.18.41.57.24l1.94-.83c1.17-.46,2.37-.83,3.59-1.11,1.79-.39,3.62-.57,5.45-.54,2.77-.02,5.53.31,8.21.99,2.43.61,4.68,1.8,6.55,3.47,1.95,1.81,3.42,4.07,4.29,6.59,1.12,3.35,1.64,6.87,1.53,10.4.1,3.54-.46,7.06-1.66,10.39-1.83,5.08-6.12,8.88-11.39,10.07-2.82.68-5.71,1.01-8.61.99-1.2.02-2.4-.08-3.58-.29-.83-.15-1.64-.37-2.44-.66-.63-.24-1.17-.46-1.61-.66-.36-.18-.76-.28-1.16-.29-.38,0-.75.05-1.11.17l-1.07.37c-.54.17-1.09.3-1.66.38-.92.12-1.84.17-2.77.16h-6.77c-3.41,0-5.12-2.12-5.12-6.35,0-2,.21-3.99.62-5.94.41-1.99.86-3.97,1.36-5.98s.94-4.06,1.35-6.09c.42-2.17.63-4.37.62-6.58Zm12.71,7.31c0,2.68.16,5.35.5,8,.26,2.19.76,4.35,1.49,6.43.53,1.58,1.36,3.03,2.44,4.3.77.96,1.92,1.53,3.14,1.56,2.74,0,4.81-1.53,6.19-4.62s2.06-7.31,2.06-12.71c.15-4.25-.38-8.5-1.57-12.58-1.05-3-2.83-4.5-5.36-4.5-1.47-.05-2.92.33-4.17,1.11-1.14.76-2.08,1.8-2.73,3.01-.73,1.4-1.23,2.9-1.49,4.46-.33,1.86-.5,3.74-.5,5.63v-.1Z"/>
    <path class="cls-2" d="m270.41,471.49c-.22,0-.5.23-.83.69-.46.61-1.02,1.14-1.64,1.57-1.01.69-2.11,1.23-3.26,1.61-1.8.55-3.68.8-5.57.74-4.79,0-8.21-.89-10.27-2.68-2.06-1.76-3.19-4.36-3.09-7.07-.04-1.81.41-3.6,1.32-5.17.94-1.52,2.14-2.86,3.54-3.96,1.58-1.24,3.28-2.3,5.08-3.18,1.89-.93,3.85-1.83,5.86-2.68l5.98-2.56c1.85-.79,3.65-1.71,5.36-2.77.44-.2.84-.49,1.16-.86.2-.48.29-1,.24-1.52-.02-.58-.09-1.16-.21-1.73-.15-.74-.41-1.45-.78-2.11-.38-.67-.88-1.27-1.47-1.77-.64-.51-1.45-.78-2.27-.74-1.16-.05-2.3.32-3.22,1.04-.86.72-1.58,1.59-2.14,2.56-.63,1.07-1.2,2.17-1.69,3.3-.51,1.16-1.13,2.26-1.85,3.3-.71,1.01-1.61,1.88-2.64,2.56-1.25.74-2.68,1.1-4.13,1.04-2.19.1-4.33-.64-5.98-2.07-1.48-1.31-2.31-3.21-2.27-5.19-.11-2.24.86-4.4,2.59-5.82,1.87-1.47,4.02-2.55,6.31-3.18,2.53-.72,5.12-1.19,7.75-1.38,2.67-.18,4.87-.28,6.8-.28,3.02-.06,6.04.2,9,.78,1.95.37,3.8,1.13,5.45,2.23,1.22.83,2.16,2,2.72,3.36.52,1.39.81,2.85.86,4.32.08,1.71.06,3.41-.07,5.12-.15,1.82-.21,3.65-.21,5.62,0,1.42.2,2.84.62,4.2.4,1.33.86,2.61,1.35,3.84s.95,2.44,1.36,3.65c.42,1.22.63,2.5.62,3.79.05,1.33-.38,2.63-1.22,3.65-1.02,1.07-2.48,1.62-3.96,1.49h-9.9c-1.24.05-2.47-.25-3.54-.86-.87-.46-1.41-1.37-1.4-2.35,0-.11,0-.22,0-.33-.02-.14-.14-.24-.28-.23-.02,0-.05,0-.07.02Zm4.04-20.38c0-.44-.1-.69-.29-.74s-.51,0-.95.33c-.77.49-1.78,1.22-3.01,2.1-1.34.99-2.56,2.13-3.65,3.39-1.21,1.39-2.24,2.93-3.06,4.58-.87,1.77-1.31,3.73-1.28,5.7-.09.88.18,1.76.74,2.44.5.5,1.19.77,1.9.74.95-.04,1.85-.41,2.56-1.04.96-.76,1.8-1.65,2.52-2.64.83-1.14,1.53-2.36,2.1-3.65.58-1.25,1.02-2.56,1.33-3.91.27-1.22.51-2.44.74-3.65.22-1.2.34-2.41.35-3.63Z"/>
    <path class="cls-2" d="m294.5,438.15c-.67.06-1.34-.18-1.82-.66-.36-.38-.57-.88-.58-1.4.01-.52.22-1.02.58-1.4.48-.48,1.14-.72,1.82-.66h1.97c.61,0,.94-.17.99-.5.08-.81.11-1.62.09-2.44-.04-1.53.54-3.02,1.61-4.12,1.13-1.14,2.47-2.04,3.96-2.64,1.59-.66,3.26-1.13,4.96-1.4,1.54-.26,3.1-.4,4.67-.41.74-.03,1.47.11,2.14.41.6.33,1.06.85,1.32,1.49.39.94.63,1.94.69,2.96.11,1.22.17,2.91.17,4.95,0,.83.12,1.3.37,1.45.22.12.46.2.71.21h3.05c.67-.02,1.33.23,1.8.71.38.37.61.87.62,1.4-.02.53-.24,1.03-.62,1.4-.5.47-1.18.71-1.86.66h-2.89c-.72,0-1.44.15-2.1.45-.69.36-1.25.93-1.61,1.62-.52.99-.87,2.06-1.04,3.17-.28,1.71-.4,3.44-.38,5.17,0,2.03,0,4.29.13,6.76.06,2.33.25,4.66.57,6.97.23,1.88.7,3.73,1.4,5.49.63,1.49,1.5,2.23,2.61,2.23.57-.01,1.12-.25,1.52-.66.5-.51.91-1.1,1.22-1.74.38-.78.68-1.59.88-2.44.2-.8.31-1.63.32-2.46-.05-.64.17-1.26.61-1.73.36-.37.85-.58,1.36-.58,1.18-.01,2.14.93,2.15,2.11,0,.07,0,.14,0,.2-.03,1.44-.26,2.87-.69,4.25-.52,1.63-1.39,3.13-2.56,4.37-1.43,1.47-3.14,2.63-5.03,3.42-2.59,1.02-5.36,1.5-8.14,1.4-1.49,0-2.97-.08-4.45-.24-1.34-.14-2.63-.56-3.8-1.22-1.12-.65-2.05-1.59-2.68-2.72-.77-1.5-1.13-3.19-1.04-4.87,0-1.32.18-2.64.5-3.92.33-1.35.69-2.78,1.11-4.29s.79-3.16,1.12-4.87c.34-1.91.5-3.84.49-5.77.03-1.89-.04-3.77-.21-5.65-.05-1.04-.28-2.07-.67-3.03-.21-.56-.65-1.01-1.22-1.22-.56-.15-1.15-.21-1.73-.21h-2.39Z"/>
    <path class="cls-2" d="m332.12,438.15c-.68.06-1.34-.18-1.83-.66-.35-.38-.56-.88-.57-1.4.01-.52.22-1.02.57-1.4.48-.47,1.14-.71,1.82-.66h1.99c.61,0,.94-.17.99-.5.08-.81.11-1.62.09-2.44-.04-1.53.54-3.02,1.61-4.12,1.12-1.14,2.47-2.04,3.96-2.64,1.59-.66,3.26-1.13,4.96-1.4,1.54-.26,3.09-.4,4.65-.41.74-.03,1.47.11,2.14.41.6.33,1.07.85,1.33,1.49.38.95.6,1.95.66,2.97.11,1.22.16,2.91.16,4.95,0,.83.13,1.3.38,1.45.21.13.46.2.71.21h3.05c.69-.05,1.36.19,1.86.66.38.37.59.87.61,1.4-.02.53-.23,1.03-.61,1.4-.5.47-1.18.71-1.86.66h-2.89c-.73,0-1.45.15-2.11.45-.67.38-1.22.96-1.55,1.66-.51.99-.86,2.06-1.02,3.17-.28,1.71-.41,3.44-.38,5.17,0,2.03,0,4.29.12,6.76.07,2.33.27,4.66.58,6.97.22,1.89.69,3.73,1.4,5.49.63,1.49,1.5,2.23,2.59,2.23.58-.01,1.13-.25,1.53-.66.5-.51.91-1.1,1.22-1.74.38-.78.67-1.59.86-2.44.21-.84.32-1.7.33-2.56-.05-.64.18-1.27.62-1.73.36-.37.85-.58,1.36-.58,1.18-.01,2.14.93,2.15,2.11,0,.07,0,.14,0,.2-.03,1.44-.26,2.88-.71,4.25-.51,1.64-1.38,3.13-2.56,4.37-1.42,1.47-3.14,2.64-5.03,3.42-2.58,1.02-5.35,1.5-8.13,1.4-1.49,0-2.98-.08-4.46-.24-1.33-.14-2.62-.56-3.79-1.22-1.12-.64-2.05-1.58-2.68-2.72-.77-1.5-1.13-3.19-1.04-4.87,0-1.32.17-2.64.5-3.92.33-1.35.69-2.78,1.11-4.29s.78-3.16,1.11-4.87c.35-1.9.52-3.84.5-5.77,0-2.44-.07-4.31-.21-5.65-.06-1.04-.29-2.06-.69-3.02-.21-.56-.66-1.01-1.22-1.22-.57-.14-1.15-.21-1.73-.21l-2.46.1Z"/>
    <path class="cls-2" d="m373.3,445.16c.01-2.11-.19-4.21-.62-6.27-.4-1.92-.86-3.79-1.35-5.6s-.95-3.65-1.36-5.41c-.42-1.85-.63-3.75-.62-5.65-.04-1.54.54-3.03,1.61-4.13,1.13-1.14,2.46-2.06,3.92-2.72,1.57-.73,3.24-1.25,4.95-1.53,1.53-.27,3.08-.43,4.63-.45,1.48-.14,2.94.45,3.91,1.57.91,1.42,1.34,3.1,1.22,4.79,0,2.05-.21,4.09-.62,6.09-.41,2.05-.86,4.13-1.33,6.23-.47,2.1-.9,4.23-1.29,6.41-.41,2.21-.62,4.44-.62,6.69-.01,2.21.2,4.41.62,6.58.41,2.1.85,4.13,1.32,6.09.48,2.01.91,4,1.33,5.98.41,1.95.62,3.94.62,5.93.13,1.69-.3,3.37-1.22,4.79-.97,1.13-2.43,1.71-3.91,1.57h-9.99c-3.41,0-5.12-2.12-5.12-6.36,0-1.99.21-3.98.62-5.93.41-1.99.86-3.97,1.36-5.98s.95-4.06,1.35-6.09c.42-2.17.62-4.37.6-6.58Z"/>
    <path class="cls-2" d="m411.76,459.69c0,1.56.18,3.11.57,4.62.35,1.41.97,2.74,1.82,3.92.83,1.13,1.92,2.05,3.18,2.68,1.45.7,3.05,1.04,4.67,1,1.85.06,3.69-.28,5.4-1,1.28-.56,2.42-1.39,3.35-2.44.8-.93,1.43-1.99,1.85-3.13.39-1.04.71-2.1.95-3.18.12-.54.43-1.02.86-1.35.35-.28.77-.44,1.22-.46.49,0,.96.19,1.32.54.42.46.64,1.07.58,1.69-.08,3.25-1.39,6.35-3.68,8.66-1.51,1.48-3.29,2.66-5.25,3.47-2.52,1.01-5.21,1.48-7.92,1.4-3.69.06-7.37-.47-10.89-1.57-2.95-.91-5.69-2.41-8.04-4.41-2.15-1.86-3.85-4.19-4.96-6.81-2.26-5.55-2.26-11.77,0-17.32,1.09-2.58,2.73-4.91,4.79-6.81,2.18-1.97,4.74-3.47,7.52-4.42,3.2-1.08,6.56-1.61,9.94-1.56,5.49,0,9.82,1.08,13,3.25,3.08,2.03,4.88,5.52,4.74,9.21.06,1.84-.5,3.64-1.61,5.12-1.07,1.37-2.42,2.49-3.96,3.29-1.61.84-3.33,1.44-5.12,1.78-1.7.35-3.42.53-5.15.54h-2.92c-1.01,0-2.02.09-3.01.29-.84.15-1.63.49-2.31.99-.62.49-.96,1.24-.93,2.02Zm8.53-15.76c0-.81-.05-1.63-.16-2.44-.1-.72-.27-1.42-.5-2.11-.18-.54-.44-1.06-.78-1.52-.26-.37-.67-.58-1.12-.58-.82.09-1.59.47-2.16,1.07-.83.77-1.5,1.69-1.99,2.72-.61,1.28-1.07,2.62-1.35,4.01-.34,1.56-.51,3.15-.5,4.74,0,1.88.79,2.81,2.44,2.81,1.05.03,2.08-.28,2.94-.88.8-.58,1.46-1.32,1.94-2.18.5-.89.86-1.85,1.07-2.85.17-.92.25-1.85.22-2.79h-.05Z"/>
    <path class="cls-2" d="m457.63,439.63c.07,1.45.82,2.77,2.02,3.58,1.57,1.26,3.25,2.36,5.03,3.3,2.01,1.11,4.18,2.24,6.52,3.42,2.28,1.15,4.46,2.49,6.52,4.01,1.92,1.4,3.62,3.08,5.03,4.99,1.35,1.83,2.06,4.04,2.02,6.31.05,1.81-.51,3.59-1.61,5.03-1.14,1.44-2.59,2.6-4.25,3.39-1.99.94-4.1,1.58-6.27,1.9-2.5.39-5.02.58-7.55.57-2.74.01-5.48-.12-8.21-.41-2.22-.22-4.41-.69-6.52-1.4-1.64-.53-3.12-1.45-4.32-2.68-1.05-1.13-1.61-2.63-1.57-4.17-.05-.91.23-1.8.78-2.52.54-.66,1.22-1.18,2-1.52.86-.36,1.76-.61,2.68-.74.89-.13,1.79-.2,2.69-.21.91,0,1.82.07,2.72.21.89.13,1.77.38,2.59.74.79.35,1.5.88,2.07,1.53.59.69.97,1.54,1.11,2.44.24,1.57.77,3.08,1.57,4.46.7,1.14,1.97,1.8,3.3,1.73,1.28.06,2.52-.46,3.39-1.4.71-.71,1.14-1.64,1.22-2.64-.05-1.49-.8-2.86-2.02-3.72-1.58-1.25-3.26-2.35-5.03-3.3-2.01-1.1-4.19-2.23-6.52-3.39-2.28-1.11-4.46-2.4-6.52-3.87-1.93-1.35-3.62-2.99-5.03-4.87-1.36-1.83-2.07-4.07-2.02-6.35-.06-1.81.51-3.59,1.61-5.03,1.15-1.44,2.62-2.6,4.29-3.39,1.99-.94,4.1-1.58,6.27-1.9,2.5-.39,5.02-.58,7.55-.57,2.74-.01,5.48.12,8.2.41,2.22.21,4.42.68,6.53,1.4,1.64.53,3.12,1.45,4.32,2.68,1.06,1.14,1.62,2.65,1.57,4.2.04.91-.23,1.8-.78,2.52-.55.65-1.24,1.15-2.02,1.49-.86.36-1.77.61-2.69.73-.89.14-1.78.21-2.68.21-.91,0-1.82-.07-2.72-.21-.9-.12-1.78-.39-2.61-.78-.78-.37-1.48-.88-2.06-1.52-.6-.69-.99-1.53-1.11-2.44-.11-1.36-.66-2.64-1.57-3.65-.96-.68-2.13-1.01-3.3-.91-1.16-.05-2.31.15-3.39.58-.74.27-1.23.97-1.23,1.75Z"/>
  </g>
</svg>